<?xml version="1.0" encoding="utf-8"?>
<!-- Generator: Adobe Illustrator 26.3.1, SVG Export Plug-In . SVG Version: 6.00 Build 0)  -->
<svg version="1.1" id="Layer_1" xmlns="http://www.w3.org/2000/svg" xmlns:xlink="http://www.w3.org/1999/xlink" x="0px" y="0px"
	 viewBox="0 0 3000 2758" style="enable-background:new 0 0 3000 2758;" xml:space="preserve">
<g>
	<path d="M2741.8,2520.7c-0.5,3.9-1,7.8-1.6,11.7c-2.1,13.5-8.1,19-21.6,20.1c-52.5,4.3-104.9,8.8-157.4,13
		c-54.5,4.4-109,8.5-163.4,12.9c-43.2,3.5-86.3,7.4-129.5,11c-35.2,3-70.4,5.8-105.6,8.8c-43.5,3.7-87,7.4-130.5,11.2
		c-33.5,2.9-67.1,5.8-100.6,8.5c-37.5,3-75.1,5.6-112.6,8.6c-2.8,0.2-6.1,1-8.3,2.7c-4.8,3.7-9.8,3.7-15.2,2.6
		c-40.4-8.5-80.8-17-121.2-25.6c-23.8-5.1-47.5-10.3-72.4-15.8c-0.5,2.8-1.2,6.2-1.8,9.6c-0.7,3.9-1.5,7.8-2.1,11.8
		c-1.2,8-5.4,11.9-13.8,13c-36,4.8-71.9,10.2-107.8,15.2c-25.4,3.6-50.8,7.2-76.2,10.5c-26.1,3.4-52.2,6.5-78.4,9.5
		c-59.3,6.7-118.5,13.3-177.8,19.6c-22.5,2.4-45.1,4-67.7,5.7c-5.6,0.4-11.3-0.3-16.9-1c-25.1-3.3-50.1-7-75.2-10.1
		c-37.7-4.7-75.4-8.8-113.1-13.4c-42.7-5.2-85.3-10.8-127.9-15.9c-4.4-0.5-9.3,0.5-13.6,1.8c-18.7,5.9-37.3,12.3-56,18.4
		c-16.8,5.6-34,9.4-51.8,10c-15.6,0.5-31.3,1.7-46.9,2.8c-33.9,2.4-67.2-2.4-100.4-8.2c-51.8-9.1-103.7-17.9-155.4-27.8
		c-25.2-4.8-50-11.2-74.8-17.7c-9.2-2.4-18.3-6.4-26.6-11.1c-19.7-11.1-28.9-28.6-29.8-51c-0.6-15.5,2.2-30.6,6.6-45.3
		c4.1-13.4,8.8-26.6,13.3-39.8c3.1-9,8.4-16.4,15.6-22.8c27.4-24.2,58.7-37.5,95.7-36c2.7,0.1,5.4-0.1,8,0.2
		c10.9,1.1,19.8-1.6,27.8-9.9c9.5-9.9,22.4-14.6,35.9-15.9c34.6-3.5,69.1-4.6,103.6,1c43.2,7,81,25.6,115.4,51.9
		c2.3,1.7,4.5,3.6,7.5,5.9c1.1-14.4,2.2-27.6,2.9-40.8c0.2-3.2-0.5-6.9-2.1-9.5c-13-20.5-26.2-40.9-39.7-61.1
		c-3.9-5.8-8.3-11.3-12.8-16.6c-16.1-18.8-26.4-40.6-34.1-64c-12.1-36.9-19.6-74.6-24.1-113.1c-6.5-56.1-8.6-112.4-7-168.7
		c2.6-91.7,15.1-181.9,49.4-267.9c16.9-42.4,35.8-84,58.5-123.7c39.4-69.1,90-128.8,151.9-178.8c28.5-23,57.3-45.8,86.4-68.1
		c21.5-16.5,41.9-34,60.4-53.8c51.1-54.4,102.5-108.6,153.4-163.2c29.3-31.5,57.1-64.5,81.4-99.9c41.8-60.8,101.2-93.8,170.6-112.4
		c28.7-7.7,57.9-8.4,87.3-8c3.6,0.1,7.2,1,10.8,1.6c5.8,1,10.4-0.2,13.9-5.4c14.6-22.3,36.5-31.9,62.1-32.3
		c27.6-0.4,55.3,0.9,82.9,1.9c6.2,0.2,12.5,1.9,18.6,3.4c74.2,18.5,136,56.7,184.5,116.1c37.6,46,69,95.7,90.5,151.2
		c12.6,32.7,19.9,67.1,26.5,101.4c7.8,40.9,15.7,81.9,19.7,123.3c8.1,83.7,31.7,163.2,59.7,241.8c19.2,54,38.7,107.8,52.1,163.7
		c7.7,32.2,12.7,64.7,14.7,97.7c2.2,37.9-6.6,73.4-23.1,107.2c-4.7,9.6-9.7,19-14.9,28.3c-22.4,40.6-32.6,85-39.8,130.2
		c-1.1,6.9-1.5,13.9-2,20.9c-0.9,14.8,5.3,27.7,10.9,43.1c5.4-20.8,10.4-39.3,15-57.9c18.5-75.5,39.8-150,69.5-221.9
		c0.8-1.8,1.3-3.8,2.2-5.6c7.7-15.5,17.7-26.2,37.3-26.4c33.6-0.3,67.2-2.5,100.9-4.1c85.2-3.9,170.5-7.8,255.7-11.6
		c38.3-1.7,76.6-3.3,114.9-5c71.9-3.1,143.8-6.2,215.7-9.5c52.9-2.4,105.9-5.2,158.8-7.9c9.2-0.5,10.4-0.3,13.6,8.1
		c1.9,5.2,3.1,10.9,3.5,16.4c1.6,25.8-2.5,51.1-6.7,76.5c-23.4,143.6-66.8,281.7-116.2,418.1c-11.6,31.9-24.1,63.5-37.4,94.8
		c-6.2,14.6-15.1,28.2-22.8,42.2c-1.4,2.6-3.2,5.1-5,7.5C2758.4,2519.7,2754.2,2521.6,2741.8,2520.7z M1233.2,1665.6
		c-10.6,0.7-20.6,1.6-30.5,2c-35,1.4-69.9,3.1-104.9,3.9c-21.6,0.5-43,5-64.7,3.2c-2.2-0.2-4.6,0.8-6.7,1.7
		c-32.3,13.9-62.9,30.7-88.6,55.2c-29.5,28.1-50.6,61.9-65.4,99.5c-25.7,65.4-50.5,131.1-75.6,196.8c-3.6,9.4-2.9,11,6.4,15.4
		c24.4,11.5,48.8,23.1,73.4,34.2c20.4,9.2,41.5,16.5,63.3,21.5c12.9,3,25.9,5.3,39.4,8.1c3.2-7,6.2-12.9,8.7-19
		c16.6-40,33.1-80,49.7-120c1.8-4.4,3.4-9.1,8.4-12c3.1,6.1,0.2,10.6-1.5,15c-15.6,42.2-31.5,84.2-46.9,126.5
		c-2,5.5-2.9,11.6-3.5,17.4c-1.8,17.6-1.7,35.4-4.9,52.7c-13.6,71.8-36.8,140.4-71.4,204.9c-1,1.9-1.5,4-2.4,6.5
		c2.1,0.4,3.4,0.7,4.6,0.8c32.7,3.9,65.5,7.6,98.2,11.9c28.4,3.7,56.7,8.3,85.4,8.8c14.6,0.2,29.2,1.7,43.8,3
		c23.1,2.1,44.5-2,63.6-15.5c7.9-5.6,15.5-11.6,23.1-17.5c18.4-14.3,39-19.6,62-15c5.3,1.1,10.8,1.6,18.2,2.7
		c-3.8-5.6-6.4-9.4-9.1-13.2c-36.7-51.3-70.5-104.4-100.2-160c-5-9.4-9.2-19.2-13.5-29c-1.3-3-2.1-6.4-2.1-9.6
		c-0.1-6.3,4.2-10.1,10.3-9.2c2.9,0.4,5.6,2,8.5,2.7c2.8,0.7,6.2,2.1,8.6,1.3c12-4.2,20.6,1.2,28.6,9c9.7,9.5,16.4,20.9,22.1,33
		c10,21.2,21,41.6,36,59.8c2.7,3.3,4.1,7.7,6.5,12.3c-8.9-0.1-11.1-0.8-17-5c-8.9-6.3-15.6-14.6-20.9-23.9
		c-7.8-13.9-15.1-28.2-22.7-42.2c-3.8-7-7.5-14.1-11.6-21c-3.1-5-7.3-8.9-15.3-11c2.6,4.7,4.1,7.5,5.8,10.2
		c9,14.4,18.1,28.8,27,43.2c31.3,50.4,62.9,100.6,93.8,151.2c7.4,12.2,16.4,21.7,30,26.1c6.6,2.1,13.3,3.9,20.2,5
		c8.2,1.3,16.7,1.2,24.8,2.7c10.1,1.8,20.5,3.6,30,7.3c14.4,5.6,20.2,18.3,16.7,33.3c-0.6,2.6-1.6,5.1-2.2,7.7
		c-3,11.9-6.5,23.8-8.7,35.9c-2.1,11.4-6.6,19.5-19.1,20.8c-0.4,0-0.8,0.9-1.1,1.3c7.7,18.8,15.3,37.5,23.3,57.2
		c5.2,0.5,11.3,1.1,18,1.8c-0.2-3.8-0.4-6.4-0.5-9c-0.1-3-0.4-6-0.1-9c0.8-7.7,3.5-10.6,11.3-11.5c8.3-1,16.6-1.7,24.9-2.4
		c24.9-2.2,49.8-4.3,74.7-6.5c51.1-4.5,102.2-9,153.3-13.6c12.5-1.1,25-2.4,38.1-3.7c-0.9-4.5-1.5-7.8-2.2-11
		c-5.8-29.1-12.5-58.1-13.2-87.8c-0.7-25.6-0.5-51.4,1.5-76.9c4.9-64.2,1.1-127.8-8.4-191.3c-5.5-37.2-5.3-74.6,1.5-111.5
		c4.2-22.5,11.9-44.3,18.3-66.4c2-7,5.1-13.7,7.9-21.2c-6.6-21.3-16.6-41.8-31.1-60.1c-6-7.6-12.3-15-17.7-23
		c-12.4-18.5-25.6-36.7-36.2-56.2c-13.7-25.3-23.5-52.3-24.4-81.6c-0.4-11.6-2.5-13.5-13.3-11.9c-5.8,12-10.3,24-17,34.5
		c-16.1,25.3-38.1,44.6-64.9,57.9c-47.7,23.7-98.3,30.4-150.8,23.3c-41.7-5.6-79.5-21.5-114.7-44.1
		C1278,1747,1247.3,1713.6,1233.2,1665.6z M2933.6,1867.4c-6.7-0.1-12.6-0.6-18.4-0.3c-37.3,2-74.5,4.3-111.8,6.3
		c-77.9,4.2-155.7,8.1-233.6,12.3c-53.6,2.9-107.1,6.1-160.7,8.8c-69.2,3.4-138.5,6.6-207.7,9.6c-38.9,1.7-77.9,3-116.9,4.3
		c-7.5,0.2-11.9,3-15.2,10.1c-10.5,22.7-20,45.8-27.6,69.6c-32.3,101.6-59.9,204.4-83.9,308.3c-18.5,80.2-33.6,161-45,242.5
		c-1.4,10-1.8,19.9,1.8,29.6c1.8,4.8,4.9,6.8,10,5.6c4.2-1,8.4-1.9,12.7-2.3c36.1-3.5,72.3-7,108.4-10.3
		c49.4-4.5,98.9-8.8,148.3-13.2c48.4-4.3,96.9-8.3,145.3-12.8c60-5.5,120-11.6,180.1-17.1c64.4-5.8,128.8-11.4,193.2-16.6
		c26.8-2.2,46.4-13.8,59.1-38c14.2-27.2,27.6-54.8,37.7-83.8c43.7-125.6,82.7-252.5,108.3-383.2c5.8-29.7,10.5-59.7,15.3-89.6
		C2934.9,1894.5,2934.5,1881.5,2933.6,1867.4z M1251,2501.3c0.5-1.1,1-2.1,1.5-3.2c5,1.1,10.3,1.7,15.1,3.4
		c24.2,8.4,48.3,17.2,72.5,25.7c4.4,1.5,8.9,3,13.5,3.5c4.9,0.5,7.2-2.8,9.4-9.8c1.4-4.7-0.7-6.9-4.4-8.5
		c-5.2-2.3-10.4-4.5-15.6-6.6c-21.6-9-42.5-19.3-61.9-32.3c-3.1-2.1-7.7-3.2-6.6-9.7c3.5,0.5,7.2,0.6,10.4,1.7
		c4.4,1.6,8.5,3.8,12.6,6.1c28.2,16,58.4,27.7,88,40.4c1.8,0.8,3.7,1.5,5.7,1.9c3.6,0.9,6.6-0.1,8.4-3.6c1.1-2.1,2.2-4.1,3.3-6.2
		c4.2-8.4,3.5-12.3-4-18c-4.8-3.6-9.9-6.7-15.1-9.7c-25.7-14.7-51.6-29.2-77.3-44.1c-6.3-3.6-12-8.3-17.7-12.9
		c-1.9-1.5-3-3.9-4.7-6.1c6.2-2.3,6.2-2.4,11.9-0.5c27.8,9.1,55.6,18.5,83.5,27.3c8.8,2.8,18.1,4.5,27.3,5.3
		c8.7,0.8,12.8-4,13.4-12.6c0.4-5.9-1.9-10.1-6.6-13.6c-36.1-27-75.9-45.2-120.8-52c-20.4-3.1-38,1-53.9,14.5
		c-10.6,9-22.4,16.7-34.1,24.5c-4.6,3.1-10.1,5.8-15.5,6.5c-11.8,1.6-23.8,2.1-35.7,2.4c-6.3,0.2-12.6-0.8-18.9-1.2
		c-32.9-2-65.8-2.6-98.6-7.7c-31.9-4.9-64.1-8-96.2-11.5c-39.6-4.3-79.1-4.6-118.3,4.7c-3.8,0.9-7.8,1.9-11.4-1.3
		c0.2-6.6,5-8.3,9.8-9.7c8.3-2.3,16.7-4.6,25.1-6.5c3.8-0.9,5.8-2.7,6.2-6.6c1.3-12.8,6.5-24.4,12.1-35.8
		c11.7-23.9,23.4-47.9,35.5-71.6c19.2-37.7,38.6-75.3,57.9-112.9c1.6-3.2,2.9-6.5,4.6-10.5c-2.2-0.1-3.4-0.2-4.6-0.3
		c-18-0.7-36.1-1.2-53.3-6.8c-39.3-12.7-77.8-27.7-114.4-47c-4.3-2.3-8.8-4.2-13.8-6.5c-2,4.5-3.6,8.2-5.3,11.8
		c-8.9,19-17.5,38.1-26.9,56.9c-21.3,42.6-43.2,84.9-64.6,127.4c-16,31.9-30.3,64.5-39.5,99.1c-5.5,21-9,42.3-9.2,64.1
		c-0.1,10.1,3.8,16.4,13.1,19.9c6.5,2.5,12.8,5.6,19.3,8.3c21.8,9.1,40.3,22.9,52.5,43.1c7.9,13.1,18.5,19.2,32.3,22.1
		c4.9,1,9.7,2.7,14.6,3.3c21.5,2.6,42.9,5.5,64.5,7.4c24.2,2.1,48.5,3.7,72.8,4.7c23.6,0.9,47.3,0.7,71,1.1
		c44.3,0.9,88.6,0.5,132.9-2.1c52.3-3,104.5-2.6,156.5,6c22.6,3.8,45.6,5.8,68.4,8.5c9.5,1.1,13.9-1.8,16.2-9.4
		c2.5-8.3,1-12.2-8.3-16.2c-16.2-7-32.6-13.3-49-19.9c-8.3-3.4-16.8-6.5-24.8-10.4C1257.6,2507.7,1254.5,2504.1,1251,2501.3z
		 M1828.8,1293.9c-0.3-16-3.5-31.3-8.2-46.2c-6.7-21.3-21.1-34.2-43.3-37.8c-7.2-1.2-14.6-1.9-21.9-1.8c-15.3,0.2-30.6,0.9-45.9,1.7
		c-31.1,1.5-61.5,6.8-91.3,15.7c-16.9,5.1-32.2,12.8-45.2,24.6c-11.1,10.1-22,20.4-31.8,31.7c-23.9,27.3-47.3,55.2-70.6,83
		c-14.7,17.5-26.2,36.9-33.8,58.5c-7.9,22.7-13,46.1-16.6,69.9c-1.2,8-1,16,2.7,23.5c4.8,9.5,9,19.4,14.9,28.1
		c22.6,32.9,51.9,59.8,80.1,87.7c27,26.6,59.8,43.4,94.9,55.7c36.8,12.8,71.3-0.4,91.2-33.7c5.6-9.4,11-19.1,15.4-29.1
		c13.5-31,30.9-59.7,49.6-87.7c7-10.5,13.5-21.4,20.7-31.9c17.8-25.8,26.1-54.3,26.1-85.6c0.1-28,3.5-55.8,7.6-83.5
		C1825.5,1322.3,1827,1308.1,1828.8,1293.9z M569.7,2536.7c-12.9-4.3-25-9.1-37.5-12.4c-79.1-21-158.3-42-239.6-53.3
		c-16.5-2.3-33.1-3.6-49.7-5.3c-4.7-0.5-9.6-0.7-12.6,4c-4.7,7.3-10.8,14.1-13.3,22.1c-6.2,19.6-11.7,39.6-15.6,59.8
		c-4,20.2,4.2,36.8,20.9,48.4c6.2,4.3,13.5,7.5,20.7,9.5c42.6,12.1,85.9,21.4,129.6,28.6c32.5,5.3,65.1,10.5,97.5,16.5
		c21.6,4,43.2,7.8,65.3,8.7c6.2,0.2,12.4,0.6,18.4-1.6C546.6,2616.7,550.6,2590.8,569.7,2536.7z M1414.3,1525.7
		c-1.8,5.9-3.1,10.3-4.4,14.7c-8,26.9-20.2,51.4-39.7,71.9c-26.4,27.7-59.7,41.5-96.8,47.7c-5.7,0.9-11.4,1.8-18.8,3
		c7.4,10.9,13,21.3,20.4,30c54.1,63.1,122.5,94.4,206.1,90.7c7.9-0.3,16.1-0.8,23.7-2.7c11.3-2.9,22.2-6.9,33.2-10.8
		c35.3-12.3,63.7-34.2,87.8-62.2c1.2-1.4,2.2-3.1,4-5.6c-5.6-0.9-10.3-1.1-14.6-2.3c-22.8-6.6-45.3-13.9-64.8-28
		c-10.8-7.8-21.8-15.3-32.1-23.7c-53-43.3-50.9-38.9-86.5-95.4C1426.4,1544.2,1420.7,1535.6,1414.3,1525.7z M744.7,2579.6
		c0.5,2.3,0.6,3.2,0.8,4.2c2.4,10.8,7.5,16.2,20,17.6c62.5,6.9,125,14.8,187.4,22.9c29.7,3.8,59.3,8.4,88.8,13.5
		c10,1.7,19.7,2.4,29.7,1.4c19.2-1.9,38.5-3.3,57.7-5c34.5-3,69-5.8,103.5-9.3c32.8-3.3,65.5-7.7,98.2-11.3
		c58.9-6.6,117.9-12.7,176.7-19.7c21-2.5,41.9-6.6,62.8-10c-1.9-2.4-3.8-3.5-5.9-3.8c-19.4-2.7-38.9-5.7-58.4-7.9
		c-30.1-3.5-60.3-6.1-90.4-9.8c-20.1-2.4-40-6.1-60.7-9.2c-0.9,2.4-2.1,5.5-3.3,8.5c-3.5,9.5-10.5,14.3-20.6,14.5
		c-3.3,0.1-6.7,0.3-10,0c-11.9-1.3-23.8-3-35.7-4.2c-27.2-2.6-54.4-5.3-81.6-7.3c-16.9-1.3-34-2.6-50.9-1.9
		c-46.2,1.9-92.3,5.4-138.8,3.9c-63.6-2-127.2-0.3-190.7-6.1c-5.4-0.5-11.2,1-16.7,2.4c-11,2.7-21.8,6-32.7,9
		C764.7,2574.5,755.1,2576.9,744.7,2579.6z M1909.4,2096.3c-2.1,1.3-3.6,2.1-4.9,3.1c-38.6,29.6-77.1,59.3-115.7,88.9
		c-5,3.9-6.7,8.6-6.3,14.8c1.2,20.3,2.3,40.6,2.9,60.9c0.2,8.4,2.5,15.5,7.5,22.2c10.6,14.1,21.1,28.3,31,42.9
		c26,38.3,51.7,76.8,77.6,115.2c1.7,2.6,3.8,5,6.2,8c1.1-1.9,1.7-2.7,1.9-3.6c6.2-28.3,12.1-56.7,18.5-84.9
		c9.6-42.5,19.6-85,29.2-127.5c1.1-4.8,1.5-10,0.9-14.8c-2.2-19.4-8.2-37.6-16.7-55.1c-9.3-19.1-18-38.6-27-57.9
		C1912.8,2104.5,1911.2,2100.6,1909.4,2096.3z M590.1,2516.2c-0.8,1.6-1.8,3-2.3,4.5c-7,22.2-14.7,44.2-20.7,66.6
		c-5.5,20.5-5.5,41.6-1.6,62.4c1.9,10.1,4.6,12.1,14.4,13.5c3.6,0.5,7.3,0.6,11,0.7c45.7,1.1,89.1-10.1,131.2-26.5
		c16.8-6.5,23.1-20.9,16.9-38.3c-9.1-25.8-20.5-50.6-33.8-74.4c-15.3-27.3-41.6-39.5-68.6-51.4c4.2,7.6,8.9,14.6,13.8,21.6
		c15.2,21.9,19.7,46.9,20.9,72.9c0.2,4.2-0.6,7.9-6.5,10.2C640.6,2557.5,619.1,2532.6,590.1,2516.2z M1540.8,2534.3
		c-0.1,0.4-0.1,0.8-0.2,1.3c2.4,0.8,4.8,1.8,7.3,2.3c26.2,4.7,52.4,9.4,78.6,14c56,9.8,112,19.8,168.1,29.3
		c8.5,1.4,17.3,2.3,25.8,1.7c18.3-1.2,36.4-3.4,54.7-5.3c6.9-0.7,13.7-1.7,20.9-2.6c0-12.9-0.3-25.2,0.1-37.4
		c0.4-12.1,4.4-23.9,3.5-36C1779.2,2512.6,1660,2523.5,1540.8,2534.3z M1809.1,1793.7c-6.4,32.2-4.5,61.5,1.6,90.9
		c6.2,30,12.5,60,14,90.8c1.4,29.2-6.8,55.4-26.2,77.5c-6.3,7.2-13.3,14.1-20.9,19.9c-7.1,5.5-11,11.1-8.5,20.3
		c1.1,4.1,0.6,8.6,1.1,12.9c1.3,11.4,1.8,23,6,35.5c36.3-33.9,77.3-59.3,117.9-84c0.2-1.7,0.5-2.4,0.3-3c-2.2-7.3-4.7-14.6-6.6-22
		c-16.3-62.5-32.3-125.1-53.8-186.1c-5.2-14.7-12.1-28.8-18.4-43.1C1814.3,1800.5,1812.1,1798,1809.1,1793.7z M571.5,2531.1
		c1.7-2.3,2.7-3.6,3.5-5c1.6-2.6,3.1-5.1,4.5-7.8c3.3-6.4,3-7.7-2.8-11.4c-4.8-3.1-9.6-6-14.7-8.5c-43.2-20.8-87-39.7-133.6-52.3
		c-39-10.6-78.5-14.1-118.5-13.9c-19.2,0.1-37.5,5.4-54.3,14.9c-2,1.2-3.7,3-6.8,5.5c4.1,0.7,6.3,1.1,8.5,1.4
		c43.1,6.1,86.5,11,128.9,21.5c51.6,12.7,103,26.8,154.5,40.2C551.7,2518.6,562.2,2522.4,571.5,2531.1z M1585.9,2591.7
		c-3.2,0.5-5.5,0.7-7.7,1.2c-54.9,12.7-110.8,19.2-166.8,25.4c-21.2,2.3-42.4,4.3-63.6,6.9c-32.1,4-64,9.2-96.1,12.5
		c-48.4,4.9-96.9,8.8-145.3,12.8c-12.3,1-24.6,0.9-36.9,1.4c-6.8,0.3-8.2,2-7.2,8.7c0.7,4.2,1.9,8.3,3,13.4c5.9,0,11.6,0.5,17.1-0.1
		c167.7-19,335.6-36.7,502.5-64.2c0.4-2.5,0.9-4.8,1-7.1C1586,2599.4,1585.9,2596.1,1585.9,2591.7z M748,2633
		c101.8,12.7,202.3,25.6,304.2,38.1c-1.5-8.7-2.7-15.6-3.9-22.2c-99.1-12.1-196.7-24.1-295-36.2C751.5,2619.4,750,2625.4,748,2633z
		 M779.3,2073.3c3.8,1.9,7,3.6,10.2,5c8.2,3.6,16.5,7.1,24.8,10.6c27,11.3,54,22.8,81.1,33.8c19,7.8,39,11.2,59.5,10.6
		c12.9-0.4,16.5-3.9,18.4-16.4c-1.2-0.3-2.4-0.7-3.7-0.9c-27.9-3.6-54.7-11.1-80.9-21.1c-30.9-11.8-60.2-26.7-89.3-42.2
		c-3.1-1.7-6.4-3.1-10.1-5C785.8,2056.7,782.7,2064.6,779.3,2073.3z M1868.6,2418.8c-1.1,0.7-1.9,0.8-2.2,1.3
		c-1,1.3-1.8,2.8-2.6,4.2c-13.8,24.5-29.2,47.7-52.1,64.9c-2.7,2-4.5,5.1-7.7,8.9c6.2,0,10.2,0.2,14.1,0c22.6-1.5,45.1-2.9,67.7-4.7
		c18.2-1.4,15.5-0.5,19.4-17.5c1.7-7.4,0.3-13.5-4.9-19.3c-8.8-10-17-20.5-25.4-30.8C1872.8,2423.4,1870.6,2421.1,1868.6,2418.8z
		 M1899.5,2069.4c-3.8,2.4-6.9,4.2-9.9,6.3c-32.6,23.2-65.1,46.3-97.6,69.6c-15.8,11.3-15.7,11.4-12,30.1c0.2,0.8,0.9,1.5,1.7,2.9
		c41.3-31.6,82.1-62.9,123.3-94.4C1903.1,2078.7,1901.4,2074.5,1899.5,2069.4z M1442.7,2481.2c1.4-2.9,2.7-4.8,3.4-7
		c4.4-15.6,9-31.2,13-46.9c2.3-9-1.3-15.6-10.3-18.7c-11.6-3.9-23.4-7.2-35.2-10.7c-1.6-0.5-3.3-0.3-7.4-0.7c4.8,3.7,8,5.5,10.5,8
		c4.2,4.2,8.7,8.4,11.7,13.3c6.8,11.1,5.3,22.4-3.6,31.9c-2,2.1-4.9,3.4-7.9,5.4C1426.6,2465.2,1431.8,2475.7,1442.7,2481.2z
		 M1447.1,2553.4c-10.5-16.6-20.2-31.9-30.7-48.5c-3.2,5.3-5.7,9.5-8.3,13.6c-5.1,7.8-8.7,9.3-17.7,7c-5.1-1.3-10.1-3.1-14.4-4.4
		c-3.9,7.7-7.6,15-11.5,22.7c21,2.6,42.4,5.2,63.8,7.8C1433.9,2552.3,1439.5,2552.7,1447.1,2553.4z M1768.7,2050.2
		c22.8-17.4,33.1-67,21.9-96.5C1779.8,1985.3,1772.7,2017.2,1768.7,2050.2z M1357.6,2445.4c12.2,11.5,36.8,24.9,43.2,25.5
		c-3.2-5.9-5.4-12.6-12.4-15.1C1378.3,2452.2,1367.9,2448.9,1357.6,2445.4z"/>
	<path d="M874.7,942.2c-15.4-2.8-30.8-5.2-46-8.4c-11.1-2.3-21.9-5.7-32.9-8.3c-21.5-5.1-42.1-12.3-61.8-22.4
		c-30.6-15.6-63.1-23.1-97.6-19.3c-6.6,0.7-13.2,2-19.7,3.3c-31.5,6-62.3,4.2-92.2-8.1c-44.8-18.4-72.5-52.1-86.3-97.5
		c-5.4-17.8-10-36.1-12.2-54.5c-4.8-39.6-23.7-70.2-54.9-93.8c-15.1-11.5-30.9-22.1-46.2-33.3c-5.1-3.7-10.2-7.6-14.6-12.1
		c-16.5-16.9-17.6-36.3-3-54.8c16.5-20.9,38.7-30.9,64.8-33.1c31.3-2.6,61.1,4,89.2,17.3c18.3,8.7,36.1,18.6,54,28.2
		c13.5,7.2,27.2,14.1,42.4,17.1c20,3.9,26.2-2.4,22-22.3c-0.8-3.9-1.9-7.8-2.2-11.8c-1.1-13.3,3.7-21.5,16.1-26.9
		c14.7-6.4,30.1-8.2,46-6.8c36.4,3.3,70.7,13.9,102,32.5c20,11.9,38.9,25.7,57.8,39.2c13.8,9.9,27.3,20.3,40.4,31
		c35,28.7,75.7,41,120.3,41.7c32.3,0.5,64.7,1.1,96.6,6.7c9.2,1.6,18.2,4,27.2,6.4c3.5,0.9,6.9,2.5,10.1,4.3
		c11.5,6.3,13.4,16,4.2,25.2c-5.6,5.6-12.2,10.4-19.1,14.2c-9.9,5.4-20.3,10.2-30.9,14c-19.7,7.1-39.8,13.2-59.7,19.8
		c-7.6,2.5-15.1,5.1-22.5,8.1c-4.3,1.7-8.5,3.9-12.4,6.4c-10.1,6.6-11.3,12.6-4.7,22.5c1.5,2.2,3.2,4.2,4.7,6.5
		c21.4,32.2,27,67.1,16.2,104c-11.4,38.9-39.2,60.2-79.7,62.9c-5,0.3-10,0.5-15,0.8C874.9,941.2,874.8,941.7,874.7,942.2z
		 M768.1,739.7c-10.5,0.4-19.7-5.3-31.2-3.3c7.9,7.1,17.8,5.6,24.8,10.1c-0.8,6.4-9.8,5.5-9.5,12.5c6.3,3.1,9.4-6.1,15.7-3.8
		c-0.3,2.4-0.4,4.7-0.9,6.9c-1.3,5.2-3,10.2-4.2,15.4c-0.8,3.3-3.5,8,1,9.7c5.1,1.9,5.2-3.9,6.3-6.9c1.8-5,2.8-10.3,4.2-15.4
		c0.8-3,1.9-5.8,3.1-9.3c9.6,10.6,9.6,10.6,14.2,7.5c-1.2-3.3-2.5-6.6-4.1-10.9c7.3,0.7,13.7,1.3,20,1.9c-3.9-10.9-15.6-5.8-21.5-12
		c2.1-6.2,11.1-5.8,11.4-14.8c-4.6,1.5-8.4,2.8-12.4,4.1c-3.1-8.6,5.8-16.9,0.1-26.4c-7.8,6.7-5.3,17.1-11.4,24.3
		c-1.6-2.4-2.7-4.3-4.1-6c-1.5-1.9-3.3-3.5-6.3-6.7C760.5,726.3,768.5,731.5,768.1,739.7z M533.1,797.7c6.4,1.5,6.8,9.3,14.9,9.6
		c-2.6-5.3-4.6-9.5-7.4-15.1c8.8,1.4,15.6,2.5,22.4,3.6c0.2-0.8,0.4-1.6,0.6-2.3c-5.6-4.7-14.4-2.4-20.4-7.7c3.4-2.8,6.3-5,9.1-7.3
		c-0.4-0.7-0.7-1.4-1.1-2.1c-4.1,1.2-8.3,2.4-14.2,4.2c1.5-6.2,2.7-11.2,3.8-16.2c1.2-5.2,2.2-10.5,3.3-15.8
		c-0.7-0.2-1.4-0.4-2.2-0.6c-7.2,8.6-5.8,20.8-11.2,29.9c-6.7-0.9-6.8-10.4-14.8-9.5c2.6,4.6,4.8,8.5,7.3,13
		c-8.3,2.5-15.7-4-24.3-0.6c6.8,5,15.1,2.9,21.2,8c-3.8,2.8-7,5.2-10.2,7.5c0.3,0.6,0.6,1.1,1,1.7c4.6-1.3,9.2-2.6,14.3-4.1
		c2.4,11.7-8,21.7-3.2,33.3C528,818.3,528.6,807.5,533.1,797.7z M674.7,590.7c-4.9,3.4-8.6,6-12.4,8.6c0.4,0.9,0.8,1.7,1.2,2.6
		c4.4-1.5,8.9-2.9,13.9-4.5c1.1,9.6-5.7,17.8-1.7,27.6c7.2-7.1,4.4-16.6,9.1-23.1c3.8,1.7,3.5,7.8,10,7.3c-2-5.6-3.8-10.6-5.7-16.1
		c7.2-2.6,14.2,3.1,22.1-1.7c-5.7-2-9.9-3.5-14.5-5.2c1.4-2.7,2.5-4.9,4.5-8.6c-5.2,1.7-8.7,2.9-12.4,4c-3.4-6.3,3.8-12.9-1.6-20
		c-2,5.9-3.5,10.5-5.1,15c-2.6-0.2-4.7-0.4-6.7-0.6c-0.5,2.8-0.9,5-1.2,6.6c-4.9,3.1-10.2-2.1-15.2,2.6
		C664.4,587,668.9,588.6,674.7,590.7z M419.8,588.7c6.5-3.8,13.5,2,19.9-4.8c-6.5-0.9-11.6-1.7-17.4-2.5c1.4-2.9,2.5-5.3,3.8-8
		c-2.8,0-4.6,0-6.3,0c-2.8-6,2.3-12.2-2.6-18.2c-1.7,6.3-3.5,12.6-5.5,20.1c-2.5-2.1-3.7-3.1-4.9-4.1c-1.3-1.2-2.6-2.4-3.9-3.5
		c-0.4,0.3-0.9,0.5-1.3,0.8c1.3,3.5,2.6,6.9,4.2,11.2c-4.3,1-8,1.8-11.7,2.7c0.1,0.5,0.1,1,0.2,1.5c3.2,1,6.4,1.9,10.6,3.2
		c-4.9,4.8-8.9,8.8-12.9,12.7c0.6,0.8,1.2,1.5,1.8,2.3c2.3-1.5,4.6-2.9,6.8-4.4c2.5-1.7,5.1-3.5,8.4-5.7c0.4,8.4-4.2,14.7-2,22.6
		c6.6-5.2,3.4-13.9,8-18.8c6.2,0.8,5.6,9.5,13.6,9.3C425.4,599.2,422.7,594.1,419.8,588.7z M886.1,901.2c0.9,0.2,1.9,0.3,2.8,0.5
		c6.1-6.2,2.7-15.6,6.3-22.1c6-2.1,7.5,7.5,13.4,4.1c-2.4-7.2-2.4-7.2,0.2-12.5c-3.1-1.3-6.2-2.7-9.6-4.2c2.3-3.6,4.1-6.4,6.4-10.1
		c-3.1,0-4.9,0-6.5,0c-1-2.8-1.8-5.2-2.6-7.6c-0.6,0.1-1.3,0.2-1.9,0.3c-1.2,3.9-2.4,7.8-3.7,12.1c-3.4-1.3-6.2-2.3-10.3-3.9
		c1.2,4,2,6.5,2.9,9.4c-5.1,0.4-9.4,0.7-13.7,1c0,0.6,0,1.1-0.1,1.7c3.2,1.2,6.5,2.3,10.1,3.6c-0.4,2.7-0.8,5.1-1.2,8.2
		c3.5-0.9,5.8-1.5,9-2.3C887,887.2,886.5,894.2,886.1,901.2z M549,660c0,0.5,0,1,0,1.5c2.8,1.3,5.6,2.6,8.8,4
		c-2.9,3.1-5.1,5.5-7.3,7.9c0.4,0.5,0.8,1,1.1,1.5c3.3-1.3,6.6-2.5,9.7-3.7c2.4,4.7-3,9.5,2,14.1c2.5-4.1,4.7-7.8,6.6-11
		c4.2,1.1,4.1,7.2,10,5.3c-0.8-3-1.6-6-2.5-9.4c3-1.2,5.7-2.3,9.8-4c-4.7-2.1-7.7-3.4-11.1-4.9c1.7-2.4,2.9-4.2,4.3-6.2
		c-1.9-0.9-3.3-1.5-5.2-2.4c0-3.7,0-7.6,0-11.4c-0.5,0-1-0.1-1.5-0.1c-1.9,4.3-3.8,8.6-6,13.5c-3.4-2.9-6.1-5.1-8.7-7.3
		c-0.4,0.5-0.8,0.9-1.2,1.4c1.1,3.3,2.2,6.5,3.6,10.7C556.6,659.5,552.8,659.7,549,660z M693.1,718.2c0-8.2-7.1-15.1-15.4-14.9
		c-7.7,0.2-13.6,6.6-13.3,14.4c0.3,8.2,6.8,14.6,14.7,14.4C686.8,731.9,693.1,725.7,693.1,718.2z M910.4,705.8
		c0.7-0.1,1.4-0.1,2.1-0.2c0.8-1.7,1.5-3.6,2.4-5.2c0.9-1.6,2.1-3,3.3-4.6c3.7,2.8,7,5.3,10.2,7.7c0.6-0.5,1.2-0.9,1.7-1.4
		c-1.5-3.6-3.1-7.3-4.6-11c2.3-0.9,4-1.7,5.3-2.2c-0.9-4-1.6-7.6-2.4-11.2c-2.1,0.5-4.1,1-5.9,1.4c-2-3.7,1.2-7.9-2.9-10.7
		c-1.8,2.8-3.4,5.2-5.3,8.1c-2.5-1.5-4.6-2.9-6.8-4.1c-0.3-0.2-1,0.4-1.9,0.8c0.6,2.4,1.2,4.8,1.8,7.6c-3.4,0.5-6.4,0.9-9.8,1.3
		c2.5,6,10.6,1.2,12.2,7.7c-3.1,2.9-6.2,5.9-9.3,8.8c0.3,0.6,0.7,1.1,1,1.7c2.4-0.1,4.9-0.3,7.1-0.4
		C909.3,702.3,909.9,704.1,910.4,705.8z M698.8,827.7c-1.4-8.5-9.1-12.9-10.6-21c-1.7,3.9-3.5,7.8-5.6,12.5
		c-3.3-2.9-5.7-4.9-8.5-7.4c-0.8,4.5-1.4,8.1-2,11.6c1.9,1.4,3.5,2.7,5.2,4c-2.7,3.4-4.9,6-8.3,10.2c4.2-0.2,6.3-0.4,8.3-0.5
		c1,2.4,2,4.7,3.4,8c2.5-3,4.3-5,6-7c2.5,1.1,4.5,2,7.9,3.6c-1.4-5-2.3-8.5-3.4-12.4C694.2,828.7,696.4,828.2,698.8,827.7z
		 M499.6,598.8c6.1,0,10.5-3.9,10.6-9.3c0.1-5.8-4.8-10.2-11.1-10c-6,0.2-11.1,5.1-10.9,10.6C488.5,595,493.5,598.8,499.6,598.8z
		 M884.2,756.4c-4.9-0.2-9.9,4-10.4,8.7c-0.5,5.5,4.6,10.9,10.3,10.9c5.1,0,9.5-4.1,9.8-9.2C894.2,761.6,889.6,756.6,884.2,756.4z
		 M778.6,628.3c-0.3-4.7-4.8-8.5-9.4-8c-4.4,0.5-7.8,4.4-7.5,8.9c0.3,4.7,4.7,8.5,9.4,8C775.6,636.6,778.8,632.8,778.6,628.3z
		 M478.5,680.6c-4.4,0.2-7.5,3.9-7.4,8.7c0.2,4.5,3.4,7.7,7.4,7.5c4.6-0.3,8.4-4.7,8.1-9.4C486.3,683.3,482.8,680.3,478.5,680.6z
		 M796.3,852.8c4-0.2,7.4-4.2,7-8.1c-0.5-4-4.3-7.2-8.4-6.9c-3.9,0.2-7.2,4.1-7,8.2C788.2,849.8,792.1,853,796.3,852.8z"/>
	<path d="M2064.2,685.9c49.6,2.5,99.1,4.8,148.7,7.4c16.4,0.9,16.4,1.2,25-13.1c11-18.5,24.7-34.7,41.5-48.3
		c7.6-6.1,7.6-6.2,3.8-14.9c-7-15.8-14.3-31.6-21.1-47.5c-2.4-5.6-5.4-8-11.9-8.2c-13.8-0.5-22.4-7.4-24.4-18
		c-1.6-8.2,0.3-15.7,7.1-20.6c6.6-4.7,6.2-9.4,4-16.3c-6.4-19.6-12.3-39.4-17.6-59.3c-1.9-7-2.4-14.6-2-21.8c0.8-13,8.5-17,19.8-10
		c8.1,5,15.9,11.1,22.5,18c25,26,46.5,54.9,66.8,84.7c14.6,21.5,28.9,43.2,42.9,65.1c3.8,5.9,7.8,9,15.3,8.4
		c78.3-5.4,164,44.5,201.7,124.3c0.9,1.8,2,3.5,2.5,5.4c2.5,8.6,8.6,11.2,17.1,12.5c83.6,12.8,166.9,27.5,248.1,51.8
		c18.5,5.5,36.5,12.6,54.2,20.1c8.7,3.7,17,9.3,24.1,15.6c10.1,8.9,8.9,19-2.6,26.3c-5.5,3.5-11.9,6-18.2,8
		c-22.4,7-45.5,9.8-68.8,11.8c-74.5,6.2-149.1,5.7-223.7,2.7c-21.6-0.9-17.4-1-23.2,15.2c-6,16.4-14,31.8-24.9,45.4
		c-5,6.2-5.1,11.2-1.7,18c7,14.4,13.2,29.1,19.4,43.8c2.3,5.4,5.4,8.2,11.6,9c5.3,0.7,11,3.2,15.3,6.5c10,7.6,10.7,20.1,1,28.4
		c-6.4,5.5-6.2,10.4-3.6,17.4c7.9,21.6,15.4,43.3,17.9,66.4c0.5,4.2,0.4,8.7-0.4,12.9c-1.8,10.1-8.2,13.5-17.5,9
		c-5.9-2.9-12-6.4-16.4-11.1c-14.4-15.3-29.1-30.4-41.7-47.1c-20.5-27.1-39.6-55.2-59.1-83c-5.4-7.7-5.6-8.2-13.5-5.6
		c-64.4,21.1-123.1,7-177.4-30c-42.7-29.1-68.9-70.7-84.6-119.2c-2.6-7.9-5.8-12-14.7-13.2c-75.9-10.1-151.4-22.9-226.2-39.4
		c-38.4-8.5-76.5-18.3-113.3-32.2c-12.7-4.8-24.6-11.7-36.7-17.8c-2.1-1-3.9-2.6-5.6-4.1c-12.2-10.3-11.3-21.7,2.5-29.6
		c11.7-6.8,24.7-9.8,37.8-12.2c44.4-8.1,89.3-10,134.3-10.4c22-0.2,44,0,66,0C2064.1,686.9,2064.1,686.4,2064.2,685.9z
		 M2501.7,820.6c-3.5,0-6.9,0-10.4,0c0,0.3,0,0.7,0.1,1C2494.8,821.3,2498.3,821,2501.7,820.6c1.5,0.9,2.8,2.2,4.4,2.8
		c2,0.8,4.2,1,6.5,1.5c5.7-0.1,11.3-0.2,17-0.3c4.9,5.1,10.6,3.1,16.2,1.9c4.1,3.2,4.1,3.2,10.8,2.1c-3.5-0.7-7.3-1.3-11.1-1.9
		c-5.3-0.7-10.6-1.4-16.1-2c-5.7,0.1-11.3,0.2-17,0.3c-1.4-1-2.7-2.3-4.2-2.9C2506,821.4,2503.8,821.1,2501.7,820.6z M2276.8,839
		c-3.2-0.4-6.3-0.7-9.5-1.1c0,0.6,0,1.2,0,1.8c3.3-0.3,6.5-0.6,9.8-0.9c3.7,4.9,9.6,1.5,14.1,3.6c5.2,0.2,10.4,0.4,15.6,0.6
		c6.7,4.6,14.6,3.5,21.9,4.4c25.8,3.1,51.6,5.5,77.5,8c4.9,0.5,7.6,2.4,10,6.7c15.3,27.3,30.6,54.6,46.5,81.6
		c6.7,11.5,14.8,22.1,22.4,33.1c1.1,1.7,2.8,3,5.3,5.6c-13.2-21.6-25.9-41.4-37.5-61.8c-11.8-20.6-25-40.5-34.6-62.6
		c2.1-0.8,3-1.5,3.9-1.4c16.3,1.2,32.5,2.7,48.8,3.7c33.9,2.2,67.8,4.3,101.7,6.2c6.1,0.3,12.3-0.6,18.5-0.9
		c-19.3-1.7-38.5-2.7-57.8-3.8c-24.9-1.4-49.9-2.9-74.8-4.6c-12.3-0.8-24.6-2-36.8-3.4c-2.6-0.3-6.3-1.8-7.4-3.9
		c-6.9-12.6-13.3-25.4-19.5-38.3c-0.6-1.3,0.9-3.6,1.4-5.5c-4.4-0.4-6.7-3.9-8.8-7.9c-28.1-51.4-56.3-102.8-84.5-154.3
		c-1.7-3.1-3.3-6.2-5-9.3c25.5,57.9,57.7,112.2,88.3,168.2c-3.3,0.5-5.8,0.9-8.4,1.3c7.5,0.4,11.5,4.5,14.5,10.8
		c4.8,10.2,10.3,20.1,15.5,30.2c1,1.9,1.5,4.1,2.7,7.4c-35.6-1.6-69.7-6.6-104-9.7c-5.2-0.2-10.4-0.4-15.6-0.7
		C2286.2,841.4,2281.6,840.2,2276.8,839z M2214.3,826.6c-1.3-10.9-2.1-19.8-3.4-28.7c-1.2-9-2-9.6-11.5-10
		c-55.6-2.5-111.1-6.8-166-16.3c-21.3-3.7-42.3-8.9-63.4-13.8c-5.4-1.3-10.6-3.9-15.8-6.2c-5.1-2.3-9.4-5.3-8.9-11.9
		c0.4-6.1,4.8-8.3,9.7-10.1c2.2-0.8,4.4-1.7,6.7-2.1c10.1-1.9,20.2-4.3,30.4-5.4c59.5-6.3,119.1-4.6,178.7-1.3
		c13.3,0.7,26.6,2,39.9,2.7c2.7,0.1,7.1-0.4,8-2.1c3.2-6.4,5.2-13.3,8-20.7c-3.6-0.5-5.9-1-8.1-1.1c-67.9-3.5-135.8-6.6-203.8-5.8
		c-48.7,0.6-97.3,2-145.4,10.1c-13.8,2.3-27.7,4.6-39.9,12c-9.1,5.5-9.9,11.6-1.5,17.9c7.1,5.4,14.8,10.5,23.1,13.7
		c20.8,8,41.7,16,63.1,22.1c90.9,25.6,183.9,40.7,277.2,54.3C2198.4,824.8,2205.6,825.6,2214.3,826.6z M2597.2,740.6
		c2.5,9.8,4.7,17.4,6.5,25.2c2.6,11.7,2.5,11.8,14.6,13.4c0.7,0.1,1.3,0.1,2,0.2c44.8,6.8,89.6,13,134.2,20.7
		c19.9,3.5,39.3,9.8,58.8,15.3c5.4,1.5,11.4,3.9,10.9,11.1c-0.5,6.8-6.9,7.8-11.9,8.7c-11.8,2-23.7,3.9-35.6,4.4
		c-47.6,2.2-95.3,1.1-142.9-1.3c-6.7-0.3-13.3-0.4-20-0.7c-3.3-0.1-6.2,0.6-6.9,4.2c-1.2,6.1-2,12.3-3.1,19.5
		c4.1,0.3,7.3,0.7,10.5,0.8c46,0.8,91.9,2,137.9,2c42,0,84-1.5,125.5-8.5c13.1-2.2,26-5.7,38.7-9.4c6.2-1.8,14-4.2,14.5-12
		c0.4-7.5-6.8-11.1-12.5-14.3c-9.3-5.2-18.7-10.4-28.7-14c-18.4-6.7-37.1-12.8-56-18.1c-66.4-18.6-134.3-30.9-202.3-42.1
		C2620.6,744,2609.8,742.5,2597.2,740.6z M2366.8,592.9c-1.8-3.4-2.8-5.8-4.2-7.9c-16.8-25.2-33-50.8-50.7-75.4
		c-15.7-21.9-32.7-42.9-49.8-63.7c-6.5-7.9-14.5-14.6-22.4-21.3c-3.9-3.2-8.6-6.6-14.4-4.1c-2.5,7.9-3.2,13.3-0.4,23.7
		c5,18.6,10.9,37,16,55.6c2.6,9.6,6.3,15.4,18.2,14.4c10.4-0.9,19.4,7.3,22,15.9c2.6,8.8-1.1,18.5-9.8,25.4
		c-1.8,1.4-3.6,2.8-6.3,4.8c9.2,20.2,17.9,40.5,27.9,61.5C2316,606.5,2340.1,597.6,2366.8,592.9z M1952.7,739
		c2.9,6.3,7.9,7.4,12.5,9c25.6,9.1,52.1,14.1,78.8,17.5c34.7,4.4,69.5,8.1,104.2,11.5c17.9,1.7,35.9,2.3,53.9,3.2
		c6.9,0.3,7.6-0.6,8.4-6.9c1.7-12.5,3.5-25,5.1-37.6c0.2-1.2-0.2-2.6-0.4-4.9c-3.3-0.4-6.5-0.9-9.7-1.1c-18-1.1-35.9-2.5-53.9-3.2
		c-50.6-2-101.3-3-151.8,1.6c-12.2,1.1-24.3,3.7-36.4,6.1C1959.9,735.1,1956.6,737.3,1952.7,739z M2498.2,989.5c1.5,3,2,4.6,3,5.9
		c21.5,30.4,42.6,61.2,64.8,91.1c10.3,13.8,22.6,26.1,34.5,38.7c3.8,4,8.7,7.3,13.5,10c5.2,2.9,8.7,1.2,9.4-4.4
		c0.5-4.5,0.2-9.3-0.5-13.9c-3.6-23.8-12.3-46.2-20.2-68.8c-0.3-0.8-1.2-1.5-1.1-1.4c-7.5-1.4-14.2-1.8-20.4-3.9
		c-7.1-2.5-12.6-7.6-13.6-15.8c-1.1-8.7,1.8-15.7,9.3-20.6c2.4-1.6,4.7-3.3,7.4-5.3c-8.3-18.6-16.2-36.4-24.9-55.9
		C2541.5,964.7,2521.7,979,2498.2,989.5z M2608.9,828.9c2.3,0.5,3.5,1,4.8,1.1c58.2,3.2,116.4,5.2,174.7,1.5
		c7.3-0.5,14.5-2.1,21.7-3.4c1.6-0.3,3.1-1.5,5.7-2.8c-3.1-1.8-5-3.3-7.1-3.9c-10.8-3.3-21.5-7.3-32.5-9.3
		c-40.9-7.6-81.8-14.8-122.8-21.8c-14.7-2.5-29.6-4-44.6-6c-0.5,1.8-1.1,3.1-1,4.3C2608,801.7,2608.5,814.9,2608.9,828.9z
		 M2576.2,831.1c0-0.2,0-0.4,0-0.5c-3.4,0-6.8,0-10.3,0c0,0.2,0,0.4,0,0.5C2569.4,831.1,2572.8,831.1,2576.2,831.1z M2293.9,794.4
		c0,0.2,0,0.4,0,0.6c2.2,0,4.4,0,6.6,0c0-0.2,0-0.4,0-0.6C2298.3,794.4,2296.1,794.4,2293.9,794.4z M2316.6,797.2c0-0.2,0-0.4,0-0.5
		c-2.3,0-4.5,0-6.8,0c0,0.2,0,0.4,0,0.5C2312.1,797.2,2314.4,797.2,2316.6,797.2z M2331.9,799.1c-0.1-0.2-0.1-0.3-0.1-0.5
		c-1.9,0-3.8,0-5.7,0c0,0.2,0,0.3,0,0.5C2328,799.1,2330,799.1,2331.9,799.1z M2405.6,808.5c0,0.2,0,0.4,0,0.5c2.5,0,5,0,7.5,0
		c0-0.2,0-0.4,0-0.5C2410.6,808.5,2408.1,808.5,2405.6,808.5z M2284.3,793.1c0-0.1,0-0.3,0-0.4c-1.5,0-3,0-4.5,0c0,0.1,0,0.3,0,0.4
		C2281.3,793.1,2282.8,793.1,2284.3,793.1z M2426.9,811.4c0.1-0.3,0.1-0.7,0.2-1c-1.2-0.1-2.5-0.3-3.7-0.3c-0.8,0-1.6,0.3-2.3,0.4
		c0.1,0.3,0.2,0.6,0.3,0.9C2423.2,811.4,2425,811.4,2426.9,811.4z M2435.2,812.3c-0.1,0.2-0.3,0.5-0.4,0.7c2,0,4,0,6.1,0
		c0-0.2,0-0.5,0-0.7C2438.9,812.3,2437,812.3,2435.2,812.3z M2449.6,814c0,0.5-0.1,0.9-0.1,1.2c1.9,0,3.8,0,5.7,0c0-0.3,0-0.6,0-0.8
		C2453.4,814.3,2451.5,814.1,2449.6,814z M2469,817.1c0-0.2,0-0.4,0-0.7c-2.1,0-4.2,0-6.2,0c0,0.2,0,0.4,0,0.7
		C2464.8,817.1,2466.9,817.1,2469,817.1z M2477.1,818c0,0.5,0,0.9,0.1,1.4c1.8-0.2,3.7-0.3,5.5-0.5
		C2480.8,818.6,2479,818.3,2477.1,818z"/>
	<path d="M2360.8,1240.2c4,1.5,7.1,2.5,10.2,3.8c71.6,29.9,143.1,59.9,214.8,89.7c9.9,4.1,15.7,11,17.8,21c0.8,3.9,2.8,6,5.4,8.7
		c7.7,8.4,11.1,18.8,9.7,30.4c-1.8,14.7-6.6,28.6-13.8,41.5c-6.5,11.6-13.5,23-21.6,33.5c-42.9,55.7-86.2,111.1-129.2,166.7
		c-7,9.1-15.2,16.8-25.3,22.2c-9,4.9-18.2,5.5-28,2.1c-15.8-5.5-30.4-13.3-44.4-22.6c-34.5-22.8-68.8-45.7-103.6-68
		c-22.4-14.4-45.7-27.5-68.3-41.5c-14.1-8.8-28.1-17.8-41.7-27.4c-6.4-4.6-12.1-10.5-17.3-16.5c-8.3-9.3-10.8-20.2-8-32.6
		c3.8-16.2,11.6-29.8,25-39.8c33.9-25.4,67.7-50.8,101.9-75.6c21.6-15.6,43.8-30.3,65.9-45.3c10.5-7.2,20.2-15.1,28.2-25.1
		C2345.2,1256.9,2352.9,1249,2360.8,1240.2z M2306.1,1302c-0.4-0.4-0.8-0.8-1.1-1.3c-5.7,4.1-11.4,8-17.1,12.2
		c-46.3,33.8-92.6,67.6-138.7,101.6c-5.3,3.9-10.2,8.7-14.2,13.9c-12.8,16.7-11.1,26.7,6.2,38.6c6,4.2,12.5,7.7,18.8,11.4
		c63.2,37.7,127.1,74.4,187.8,116.2c10.7,7.3,22,13.8,33.5,19.8c8.2,4.3,17,7.6,25.9,10.3c10.2,3.1,19.9,1.3,27.8-6.4
		c11-10.7,22.4-20.9,32.7-32.3c43.1-47.6,80-99.8,113.1-154.7c6.4-10.5,12.1-21.5,17.5-32.5c3.5-7.1,5.8-14.9,8.4-22.4
		c1.1-3.1,2-6.5-2.8-9.4c-2,2.8-4.1,5.6-6,8.6c-12.2,18.7-22.4,38.7-38.1,54.9c-6.4,6.6-6.4,6.9-14.4,3.1
		c-79.1-36.8-158.2-73.6-237.4-110.5c-2.4-1.1-4.9-2.1-7.1-3.6c-4-2.6-4.5-5.2-1.7-9.2C2301.3,1307.4,2303.8,1304.7,2306.1,1302z
		 M2552.6,1356.9c-62.6-26.8-124.3-53.2-186.5-79.8c-6.3,9.2-12.3,17.8-18.7,27.2c61.5,29.2,121.9,57.8,182.8,86.7
		C2539.2,1380.8,2546.5,1370.3,2552.6,1356.9z M2561.6,1347.7c-62.5-34-126.9-60.6-192.1-86.4c-0.5,10.3-0.3,11.1,6.9,14.2
		c12.2,5.3,24.6,10.2,36.9,15.4c44.8,19,89.5,38,134.3,56.9C2551.7,1349.7,2555.9,1352.8,2561.6,1347.7z M2571.1,1404.6
		c0.5,0.3,1.1,0.6,1.6,0.8c8.1-12.8,16.6-25.3,24.1-38.5c3.9-6.8,1.3-13.7-3.4-21.4C2585.6,1366.2,2578.3,1385.4,2571.1,1404.6z
		 M2563.1,1354.4c-5-0.6-6.1,3-7.2,6.5c-3.6,10.9-9.8,20.3-17,29.1c-1.1,1.3-1.9,3-3.3,5.1
		C2551.5,1390.9,2565.3,1369.9,2563.1,1354.4z M2361.3,1264.5c-8.2,8.6-23.1,30.9-25.3,37.9c3.3,3.4,5.1,0.7,7-1.8
		c5.9-8.1,11.7-16.2,17.7-24.2C2363.4,1272.8,2364.2,1269.3,2361.3,1264.5z M2457.5,1364c0.3-0.6,0.5-1.2,0.8-1.8
		c-6-2.8-12-5.7-18.1-8.5c-0.2,0.6-0.5,1.1-0.7,1.7C2445.5,1358.3,2451.5,1361.1,2457.5,1364z M2482.1,1373.6
		c-0.3,0.6-0.5,1.2-0.8,1.8c6.1,2.8,12.2,5.6,18.4,8.4c0.2-0.6,0.5-1.1,0.7-1.7C2494.3,1379.3,2488.2,1376.5,2482.1,1373.6z
		 M2402.3,1335.9c-0.2,0.5-0.4,0.9-0.6,1.4c3.3,1.5,6.6,3,9.9,4.5c0.2-0.5,0.4-0.9,0.6-1.4
		C2408.9,1338.9,2405.6,1337.4,2402.3,1335.9z M2364.8,1319.8c0.6-0.5,0.9-0.7,1.1-0.9c-0.2-0.2-0.4-0.6-0.7-0.7
		c-1.6-0.7-3.3-1.4-4.9-2.1c-0.1,0.3-0.3,0.6-0.4,0.9C2361.6,1318,2363.3,1318.9,2364.8,1319.8z"/>
	<path d="M1474.1,487.5c15.7-19.6,31-38.4,45.9-57.4c1.5-1.9,1.8-5,1.9-7.5c0-65.7,0-131.3-0.1-197c0-0.6-0.2-1.3-0.5-2.7
		c-2.1-1.3-5.1-2.3-6.9-4.4c-1.7-2-3.4-5.5-2.8-7.7c0.6-2.2,3.9-4.7,6.3-5.1c6.2-1,12.6-1.3,18.9-1.4c17.3-0.3,34.7-0.3,52-0.4
		c1.3,0,2.7-0.1,4,0.1c5.8,0.6,8.5,2.9,9,7.5c0.5,5-1.8,8.3-6.6,9.7c-1.3,0.4-2.5,0.7-4.6,1.3c0,8.8-0.1,17.7,0,26.6
		c0.8,57.3,1.7,114.6,2.3,171.9c0.1,6.1,1.8,10.8,6,15.2c21.6,22.7,42.9,45.6,64.6,68.2c11.8,12.4,20.8,26,22.2,43.6
		c2.1,25.9-2.4,50.5-14.7,73.4c-3.3,6.2-7.2,12-11,17.8c-10.1,15.5-24.6,24.2-42.8,26.2c-11.6,1.3-23.2,2.5-34.8,2.2
		c-18.3-0.5-36.5-2.3-54.8-3.7c-5.1-0.4-9.5-0.8-13.7,3.5c-3.1,3.1-7.9,4.8-12.2,6.5c-28.7,11.3-58.8,13.9-89.3,13.1
		c-36-1-70.8-7.9-104-21.8c-5.8-2.4-11.3-5.7-16.4-9.4c-7.6-5.5-9.7-13-6.4-22.1c6.6-17.8,13-35.7,19.5-53.5
		c18-49,36.2-98.1,54.1-147.2c1.8-4.9,2.5-10.3,2.6-15.5c0.2-24.3,0-48.7,0.1-73c0-6.2-0.5-10.7-7.7-13c-5.7-1.8-7.6-7.4-6.3-13.1
		c1.1-4.9,3.9-7.1,10.4-7.1c31.7-0.1,63.3,0,95-0.1c4.7,0,8.6,1.4,10.2,6.2c1.4,4.2-0.3,9.7-5.5,11.5c-8.2,2.9-8.7,8.7-8.6,15.8
		c0.3,24.7,0.3,49.3,0.6,74c0,3.6,0.6,7.4,1.8,10.7c6.5,17.8,13.4,35.5,20.1,53.2C1472.1,484.2,1472.9,485.2,1474.1,487.5z
		 M1524.1,222.6c0,5.7,0,9.6,0,13.6c-0.1,61.9-0.2,123.9-0.1,185.8c0,5.7-1.3,10.1-5,14.5c-11.5,13.8-22.7,27.9-34,41.9
		c-1.5,1.9-2.5,4.1-4.6,7.4c16.1-1.6,28.3,4.4,40.1,11.7c9,5.6,18.6,8.6,29.3,8.5c14.7-0.3,27-6,38.3-15
		c11.4-9.1,22.5-18.7,40.2-17.1c-3.2-3.7-5-6-7-8.2c-8.3-9.1-16.5-18.3-25.1-27.1c-4.5-4.6-6.3-9.5-6.3-16
		c-0.6-63.3-1.4-126.5-2.2-189.8c0-3.5-0.3-7.1-0.4-10.2C1566,222.6,1545.8,222.6,1524.1,222.6z M1364.5,332.1
		c-0.3,3.6-0.6,5.9-0.6,8.2c0.1,25,0.5,50,0.4,74.9c0,6.2-0.9,12.7-3,18.5c-20.1,56-40.6,111.9-60.9,167.9
		c-4.2,11.6-7.9,23.3-11.9,35c-2.4,6.9-0.8,12.7,5.3,16.6c5.6,3.6,11.3,7.2,17.4,9.6c37.9,15.3,77.3,21.7,118.1,21
		c25.2-0.4,49.6-4.5,73.2-13.6c15.9-6.1,23.8-19.6,20.3-36.4c-1.4-6.8-3.4-13.6-5.8-20.1c-21.9-59.3-44-118.5-66.2-177.7
		c-2.7-7.3-4-14.6-4-22.4c0.1-24.3-0.2-48.6-0.3-72.9c0-2.9-0.4-5.7-0.7-8.6C1418.5,332.1,1392,332.1,1364.5,332.1z"/>
	<path d="M295.6,1406.1c-0.5-86,68.6-153.1,154.9-150.9c22,0.6,43,5.4,62.4,15.6c9.6,5,17.8,5,27.4,0.7c18.3-8.2,37.5-14,57.4-16.6
		c9.2-1.2,18.6-1.1,27.9-0.9c4.2,0.1,8.5,1.5,12.5,3.2c10.6,4.4,16.1,12.4,16.3,24c0.2,10.6-3,20.4-7.7,29.7
		c-9.5,19.3-22.7,36-36.8,52.1c-13.5,15.3-12.8,9.4-10.9,32.5c3.7,46.1-10,86-43.8,118.5c-46.9,45.1-113.2,56.5-171.9,28.5
		c-7.7-3.7-14-3.9-21.6-0.2c-29.2,14.1-59.3,25.5-91.5,30.6c-11.2,1.8-22.6,2.3-33.7-0.8c-16.7-4.6-24-16.1-21.2-33.1
		c2.5-14.8,9.3-27.7,17.6-39.9c15.4-22.7,33.2-43.5,53.5-61.9c7.8-7,11.5-14,9.5-24.2C295.3,1410.9,295.6,1408.5,295.6,1406.1z
		 M446.5,1261.4c-8.7,1-18.1,1.3-27.2,3.1c-54.3,10.8-91.5,42.7-109.3,94.5c-18.1,52.6-5.8,100.4,30.2,142.3c7.7,9,9.2,9.2,19.7,4.6
		c79.3-35.1,150.9-81.8,213.9-141.6c8.9-8.5,9.4-10.5,3.4-21.6C549.2,1291.2,505.2,1265.3,446.5,1261.4z M534,1281
		c5,7.5,11,9.9,19.2,6.9c3.7-1.4,7.7-2.3,11.5-3.3c12.3-3.1,24.8-5.4,37.6-4.5c16.7,1.1,25,12.1,20.5,27.9
		c-1.8,6.3-4.7,12.5-8.1,18.2c-10.1,17-23,31.9-37.3,45.5c-56.5,53.8-120.9,96.1-190.8,130.3c-23.4,11.5-47.5,21-72.9,27.1
		c-11.8,2.8-23.6,4.4-35.7,3c-14.8-1.8-22.2-11.5-18.4-25.8c2.2-8.2,5.9-16.4,10.7-23.4c7.8-11.2,17-21.3,25.7-31.8
		c5-6,5.2-7.2-0.4-15.7c-13.3,14.4-27,28-39.4,42.7c-9.4,11.2-17.7,23.4-25.1,36c-4.6,7.9-7.8,17.1-9.5,26.1
		c-2.8,14.4,3.6,23.4,18,25.9c8.1,1.4,16.6,1.7,24.8,0.7c26.3-3.1,51.4-11.2,75.6-21.9c89.6-39.6,169.9-93.1,240.4-161.1
		c19.3-18.5,36.9-38.5,51.5-61c7-10.7,12.6-22,15.1-34.6c2.7-13.6-3.1-23.4-16.7-26.1c-8.7-1.7-17.9-2-26.7-1.1
		c-22.7,2.3-44.2,9.6-65.4,17.7C537,1279.3,535.7,1280.1,534,1281z M590.1,1384.4c-62.4,60.1-131.6,108.2-207,148.2
		c37.2,23.7,97.4,23.6,142.6-4.4C573.3,1498.6,599.5,1442.8,590.1,1384.4z M303.1,1454.4c-13.3,9.3-33.2,36.3-36.9,49.7
		c-0.5,1.6-0.8,3.2-1,4.9c-1.1,8.5,2,13.3,10.3,15.7c2.5,0.7,5.2,0.9,7.9,1.1c17,0.9,32.9-3.8,48.7-9.3c2.4-0.8,4.6-2,8.1-3.6
		C323.2,1495.5,311.3,1476.2,303.1,1454.4z M550.4,1295.4c16.7,16.2,28.7,33.2,37.7,54.1c11.9-13.8,22.7-26,27.6-41.9
		c3.8-12.3-0.9-19.4-13.8-20.8C584.8,1285,568.7,1289.6,550.4,1295.4z"/>
	<path d="M101.9,1382.7c2.1-1,4-2.5,6.2-2.8c10.2-1.5,20.4-2.8,30.7-4.1c8.3-1,8.8-1.1,9.6-9.6c2-18.9,3.6-37.8,5.5-56.7
		c0.6-6.1,0.7-12.3,3.6-18.4c5,1.7,4.4,5.4,4.6,8.4c0.9,18,1.6,35.9,2.3,53.9c0.2,4.3,0.2,8.7,0.5,13c0.6,9.5,1.1,10,10.2,11.4
		c7.9,1.2,15.8,2.6,23.6,3.9c1.3,0.2,2.9,0,3.9,0.7c1.5,1,2.6,2.7,3.8,4c-1.4,1.1-2.6,3.1-4.2,3.3c-6.6,1-13.2,1.6-19.8,2.3
		c-4,0.4-8.1,0.4-11.8,1.6c-2,0.6-4.1,3-5,5.1c-1,2.3-0.6,5.2-0.7,7.9c-1.5,27.3-3,54.5-4.6,81.8c-0.2,3.3,1.1,7.6-4.5,9.8
		c-0.8-2.1-2-3.9-2.2-5.9c-1.3-13.9-2.5-27.9-3.4-41.8c-1.1-15.6-1.8-31.2-2.7-46.9c-0.8-12.6-0.8-12.5-13-13.8
		c-8.9-0.9-17.8-2.1-26.7-3.3c-1.8-0.2-3.5-1.2-5.2-1.8C102.2,1384.1,102,1383.4,101.9,1382.7z M173.3,1384.6
		c-1.6-0.3-3.2-0.6-4.8-0.9c-9.1-2.1-9.9-3.2-10.4-12.8c-0.2-3.3-0.4-6.6-0.8-12.3c-1.7,7.1-1.8,12.5-4.2,16.5
		c-2.3,3.7-7,5.8-10.4,8.4c10.3,3.7,10.2,3.8,10.9,16.1c0.6,11.5,1.6,23,2.3,34.5c1.8-10.7,2.6-21.3,3.4-31.9
		C160.5,1389,160.5,1389,173.3,1384.6z"/>
	<path d="M586,1129.5c-2.3,0.7-4.5,1.8-6.8,2.1c-5.6,0.8-11.2,1.3-16.9,1.9c-8.9,0.9-9,0.9-9.5,10.3c-1.1,20.9-2.1,41.9-3.3,62.8
		c-0.2,3.7,1,8-4.7,11.5c-4.7-28.7-3.7-56.8-7.3-85.5c-11.4-1.7-22.6-3.3-33.9-4.9c-0.1-0.7-0.2-1.4-0.3-2.1
		c1.8-0.9,3.5-2.4,5.4-2.7c7.5-1.2,15.1-2.2,22.7-3.1c7.3-0.9,7.6-1,8.3-8.4c1.4-14.9,2.7-29.8,4.2-44.7c0.5-4.7,1.5-9.4,2.3-14
		c0.7,0,1.5,0,2.2,0c0.5,1.7,1.4,3.3,1.5,5c0.9,16.9,1.6,33.9,2.4,50.8c0.6,11.9,0.6,11.9,12.2,13.5c4.9,0.7,9.9,1.4,14.8,2.4
		c2.3,0.5,4.4,1.9,6.6,2.9C586.1,1128,586,1128.8,586,1129.5z"/>
	<path d="M1555,180.5c0.2,5-3.4,9-8.2,9.3c-5.3,0.3-10.2-4.2-10.5-9.6c-0.2-4.8,3.4-8.9,8.3-9.3C1550,170.5,1554.8,175,1555,180.5z"
		/>
	<path d="M1578.3,177.6c4.9,0,8.8,3.7,9.1,8.5c0.3,5.1-4.2,9.6-9.3,9.3c-4.8-0.2-8.4-4.2-8.4-9.1
		C1569.7,181.3,1573.3,177.6,1578.3,177.6z"/>
	<path d="M1628.2,93.1c4.4-0.2,7.6,2.8,7.8,7.1c0.2,4.4-2.7,7.6-7.1,7.8c-4.4,0.2-7.6-2.7-7.8-7
		C1620.9,96.6,1623.9,93.3,1628.2,93.1z"/>
	<path d="M1578.6,116.7c-0.2,3.9-3.4,6.8-7.2,6.7c-3.6-0.1-7-3.5-7-7.1c0-4.1,3.6-7.3,7.9-7C1576.2,109.6,1578.8,112.7,1578.6,116.7
		z"/>
	<path d="M1577.6,142.8c5.6-0.1,8.6,3,8.4,6.9c-0.2,3.9-2.4,6-6.2,6.1c-3.9,0.2-7.4-3.1-6.5-6.8
		C1573.9,146.4,1576.5,144.3,1577.6,142.8z"/>
	<path d="M1624.1,142.3c-5.4-0.1-8.2-2.9-7.8-6.3c0.4-3.5,2.7-5.2,6-5.4c3.4-0.2,6.8,3.2,5.8,6.4
		C1627.5,139.3,1625.1,141.1,1624.1,142.3z"/>
	<path d="M500.1,2630.3c-8.4-6.7-8.4-7,0.3-15.9c2,2.4,4,4.7,6.4,7.6C504.1,2625.3,502.3,2627.5,500.1,2630.3z"/>
	<path d="M453.3,2556.2c5.4-6.7,7.6-7.5,11-4.6c2.9,2.5,3.1,5.7,0.3,8.4C461.4,2563.1,459.4,2562.5,453.3,2556.2z"/>
	<path d="M347.5,2509.7c8.1,6.4,8.1,6.4,1,13.6C339.9,2518,339.8,2516.8,347.5,2509.7z"/>
	<path d="M267.2,2495c8.2,5.4,8.2,5.7-0.1,15c-2.1-2.3-4.2-4.5-6.6-7.1C263.7,2499.1,265.5,2497,267.2,2495z"/>
	<path d="M519.1,2566.3c-3,4.2-4.7,6.5-6.7,9.2c-3.3-2.9-7.4-4.6-6.4-9.4c0.3-1.6,2.7-4.1,3.7-3.9
		C512.6,2562.8,515.2,2564.5,519.1,2566.3z"/>
	<path d="M431.1,2608.9c6.7,6.4,6.7,6.4-0.1,13.1C423.2,2615.4,423.2,2615.2,431.1,2608.9z"/>
	<path d="M356.5,2609.8c-3.9-4-7.7-6.8-3.3-11.6c2.2-2.3,4.7-2.5,6.8,0.1C364.2,2603.4,359.6,2605.9,356.5,2609.8z"/>
	<path d="M450.8,2582.7c1.8,3.2,3.2,5.7,4.9,8.6c-2.2,2-4.1,3.6-5.9,5.2C442.1,2590.7,442.1,2590.7,450.8,2582.7z"/>
	<path d="M397.3,2577.2c2.7,4.1,7.2,7,2.5,11.6c-2.5,2.5-5.1,1-6.8-1.2C389.5,2582.9,393.2,2580.5,397.3,2577.2z"/>
	<path d="M323.6,2500.7c-3.7,3.5-6.4,8.1-11.2,3.4c-1.1-1.1-1.3-4.7-0.3-5.8C316.4,2493.2,319.4,2497.4,323.6,2500.7z"/>
	<path d="M405,2537c5.4-6.9,5.4-6.9,12.4-0.1C410.8,2543.7,410.8,2543.7,405,2537z"/>
	<path d="M345,2567.8c5.9,5.6,6.6,7.7,3.2,10.1c-1.4,1-4.9,1.1-5.8,0.1C337.8,2573.5,342.1,2570.8,345,2567.8z"/>
	<path d="M382.1,2536.3c6.2,5.3,6.2,5.3,1.5,10.6C376.6,2542.2,376.6,2542.2,382.1,2536.3z"/>
	<path d="M237.4,2548.2c-3.3-3.6-7.3-5.9-3.4-9.8c1.1-1.1,4.7-1.6,5.7-0.7C244.3,2541.9,239.7,2544.4,237.4,2548.2z"/>
	<path d="M302.5,2572.9c3.1,2,6.5,3.9,3.1,7.7c-1.1,1.2-4.9,1.8-5.6,1C296.2,2577.6,300.5,2575.5,302.5,2572.9z"/>
	<path d="M494.6,2586.3c-2.8,4.2-5.4,6.3-8.9,2.3c-1-1.1-1.6-4.3-0.9-4.9C489.2,2579.9,491.4,2583.8,494.6,2586.3z"/>
	<path d="M485,2528.4c-3.6,2.9-6.5,5.7-9.8,1.8c-0.8-0.9-0.6-4,0.3-4.8C479.3,2522,481.6,2525.4,485,2528.4z"/>
	<path d="M262.7,2590.4c-3.6,3.9-6.6,5.7-9.7,1.9c-0.8-1-0.5-4.2,0.4-5C257.6,2583.8,259.4,2587.9,262.7,2590.4z"/>
	<path d="M291.4,2541.7c2.9,2.8,6,4.9,2.6,8.4c-1,1-4.2,1.5-5,0.7C285.3,2547.4,287.8,2544.7,291.4,2541.7z"/>
	<path d="M655.5,2601.9c-1.5,1.4-3.6,4.8-6.5,5.7c-4.4,1.3-9.5-4.4-9.3-9.4c0.2-4.3,2.7-6.5,7.2-6.2
		C651.7,2592.3,655.5,2595.9,655.5,2601.9z"/>
	<path d="M603.9,2615.5c0.3,4.3-4.7,10.9-8.1,10.3c-2.3-0.4-5.1-3-5.8-5.2c-1.3-4.2,2.4-8.8,6.7-9.2
		C600.1,2611.1,603.2,2611.8,603.9,2615.5z"/>
	<path d="M636.5,2634.2c-7.1-7.5-7.7-9.4-4.3-12.7c3.3-3.2,7.6-3,10.4,0.6C645.3,2625.4,644.4,2627.2,636.5,2634.2z"/>
	<path d="M694.3,2551.9c-2.8-3-5.2-4.7-6.3-7c-1.2-2.7,2.8-7.5,5.5-6.5c2.7,1,5.6,3.5,6.5,6.1
		C700.5,2545.9,696.9,2548.6,694.3,2551.9z"/>
	<path d="M601.9,2573.8c6,6.3,6,6.3,0.7,11.3C596.6,2580.6,596.6,2580.6,601.9,2573.8z"/>
	<path d="M669.1,2634.2c-4-3.6-7.5-6.1-3.3-10.6c2-2.1,4.1-2.2,6-0.1C675.9,2628.1,671.3,2630.4,669.1,2634.2z"/>
	<path d="M698,2611c-3.1-2.8-6.8-4.7-3.6-8.9c1-1.2,4.5-2.1,5.6-1.3C704.9,2604.2,701.8,2607.3,698,2611z"/>
	<path d="M1926.6,723.3c-2.7-3.7-5.3-5.9-6-8.6c-0.8-3.3,3.7-7.1,6.9-6.5c3.6,0.6,6.4,3,5.5,6.7
		C1932.4,717.6,1929.6,719.6,1926.6,723.3z"/>
	<path d="M1880.2,728.5c-1.3,1.2-3.3,3.9-5.9,4.8c-3,1.1-6.5-2.4-6.4-5.7c0-3.8,2-6.2,5.8-6.8
		C1877.2,720.3,1880.2,723.2,1880.2,728.5z"/>
	<path d="M1920,750.3c-1.4,1.1-3.4,3.8-6.1,4.6c-3.1,1-6.3-2.6-6.2-6c0.2-3.8,2.2-6.2,6-6.6C1917.1,742,1920,745.1,1920,750.3z"/>
	<path d="M2859.1,843.3c-1.6,1.1-3.8,3.5-6.4,4.1c-3.3,0.7-6.5-3.5-6.4-7.2c0.1-3.6,3-6.4,6.2-6.1
		C2855.9,834.5,2859.3,838.2,2859.1,843.3z"/>
	<path d="M2833.2,812.1c-2.5-4.3-5-6.7-5.3-9.3c-0.4-3.7,2.4-6,6.2-5.9c3.4,0,6.6,3.5,5.5,6.6C2838.8,806,2836.3,808.1,2833.2,812.1
		z"/>
	<path d="M2888.1,821.9c-3.7,3.2-5.7,6-8.3,6.7c-3,0.8-5.6-1.5-5.9-5c-0.3-3.7,1.4-7.1,5.1-7
		C2881.5,816.6,2883.9,819.4,2888.1,821.9z"/>
	<path d="M2380.4,1433.4c-2.3,0.6-5.7,2.7-7.6,1.8c-8.8-4.5-17.1-9.7-26.9-15.5c6.9-8.1,12.7-15.1,19.3-22.9
		c9.9,5.2,19.1,10.1,28.9,15.3c-1.4,3.3-2.5,5.9-4.6,10.7c4.5-3.9,7.3-6.3,11.2-9.7c9.6,5.4,19.5,11.1,30.8,17.5
		c-6.7,8.8-12.5,16.5-19.1,25.1C2401.2,1447.8,2390.9,1440.7,2380.4,1433.4z M2361.4,1419.9c2.5,1.5,5,3,7.2,4.4
		c3.6-4.7,6.5-8.4,10-12.9c-2.9-1.5-5.5-2.8-7.5-3.7C2367.6,1412.2,2364.8,1415.6,2361.4,1419.9z M2397.7,1435.1
		c4.9,3,8.9,1.6,12.4-0.9c3.6-2.5,2.8-7.1-1.5-8.3c-1.7-0.5-3.8,0.3-6.1,0.6c0.2,2.6,0.3,4.7,0.5,6.8
		C2401.1,1434,2399.4,1434.5,2397.7,1435.1z"/>
	<path d="M2324.1,1549c-9.4-8-17.9-15.2-27.4-23.3c6.5-9.5,12.6-18.4,19.2-28.1c12.4,6.7,22.9,14.6,35.2,22.7
		C2341.8,1530.3,2333.2,1539.3,2324.1,1549z"/>
	<path d="M2306.1,1446.1c-10.2,9.1-18.9,16.7-28.8,25.5c-7.5-5.5-16.7-12.1-27-19.5c7.5-9.5,14.1-17.9,21.5-27.3
		C2283.1,1431.8,2293.6,1438.3,2306.1,1446.1z M2270.2,1452.5c0.7,0.6,1.4,1.3,2.1,1.9c2.7-3.5,5.4-6.9,8.1-10.4
		c-0.1-0.1-0.2-0.2-0.3-0.4C2276.8,1446.6,2273.5,1449.5,2270.2,1452.5z"/>
	<path d="M2244.3,1452.5c9.3,7.1,17.8,13.6,27.2,20.7c-6.2,9.3-13.6,16.4-20.7,23.6c-1.1,1.1-4.8,1.3-6.1,0.3
		c-8.2-6-16.1-12.4-25.4-19.7C2228.1,1468.7,2235.8,1460.9,2244.3,1452.5z"/>
	<path d="M2235.9,1365.9c0.4-1.9,0.1-4.3,1.2-5.6c6.1-7.3,12.6-14.4,19.8-22.5c10.9,7.4,21.2,14.3,32.9,22.2
		c-7.9,7-14.3,13.1-21.3,18.5c-1.4,1.1-5,0.3-7.2-0.6c-7.3-3.1-14.4-6.7-21.6-10C2238.5,1367.2,2237.2,1366.5,2235.9,1365.9z"/>
	<path d="M2276,1473.4c11.9,7.3,22.1,13.4,32.1,19.5c-2.6,7.4-14.4,21.4-25.2,30c-8.1-6.6-16.4-13.3-25.4-20.7
		C2263.9,1492.3,2269.8,1483.2,2276,1473.4z M2278.3,1495.3c-4.5,1.6-6.9,4.5-6.1,9.5c10.5,0.9,15.8-3.8,14.1-13.6
		c-3,1.6-5.6,3-8.3,4.4L2278.3,1495.3z"/>
	<path d="M2287.4,1471.8c7.6-8.1,14-15.1,20.7-21.8c1.2-1.2,4.6-1.7,6.1-0.9c9.1,4.6,17.9,9.7,28.1,15.3c-4,4.9-6.9,8.8-10.1,12.3
		c-4.2,4.6-8.8,8.9-13.2,13.3c-5.8-3-11.7-5.9-17.4-9.1C2297.4,1478.4,2293.3,1475.5,2287.4,1471.8z M2311.9,1478
		c0.6-0.3,1.1-0.6,1.7-0.9c-0.8-1.6-1.6-3.1-2.5-4.9c2.3-1.7,4.6-3.4,6.8-5c-0.2-0.5-0.5-1-0.7-1.4c-4.3,1.5-8.6,3-14.5,5.1
		C2306.9,1474,2309.4,1476,2311.9,1478z"/>
	<path d="M2423.4,1513.6c-9.5,10.8-17.6,20.1-25.8,29.2c-7,8-14,16-21.3,23.8c-1.8,1.9-5.4,4.3-7.3,3.7c-11-3.4-21.7-7.7-32.1-12.8
		c3.1-7.4,45.1-56.2,54.1-62.9C2401.2,1500.5,2411.6,1506.6,2423.4,1513.6z M2391.6,1501.1c-13.8,12.8-42.8,46.6-46.1,53.6
		c8.2,3.2,16.5,6.4,24.8,9.6c15.3-16.7,30-32.8,45.3-49.5C2406.8,1509.8,2399.3,1505.5,2391.6,1501.1z"/>
	<path d="M2325.1,1374.7c12.2,6.7,23.7,13,36.6,20.1c-7.3,7.3-13.3,13.4-19.5,19.2c-1.1,1.1-4,1.5-5.4,0.9
		c-9.7-5-19.3-10.3-28.9-15.6c-0.5-0.3-0.6-1.2-1.4-3C2312.3,1389.5,2318.5,1382.4,2325.1,1374.7z M2334.7,1397.1
		c0.2,0.4,0.4,0.8,0.7,1.1c2.4-1.4,4.9-2.8,8.6-5c-3.8-2.3-6.1-3.7-10.3-6.3c2.3,3.4,3.3,4.9,4.3,6.3
		C2336.8,1394.6,2335.7,1395.8,2334.7,1397.1z"/>
	<path d="M2200.6,1436.3c-9.6,7.2-17.8,13.3-26.8,20c-7.6-6.2-14.8-12.2-22.8-18.8c5.7-10,12.4-18.3,20-27.2
		C2180.6,1418.9,2189.7,1426.9,2200.6,1436.3z"/>
	<path d="M2386.6,1484.9c-10.8-6.7-20.3-12.6-31.2-19.3c7.8-8.7,14.7-16.5,22.3-25c10.5,5.5,20.1,11.5,30.5,18.9
		C2400.9,1468.2,2394.1,1476.1,2386.6,1484.9z M2388.3,1457c-0.1-0.5-0.2-1-0.3-1.5c-2.8,0.2-5.8-0.1-8.3,0.8c-2,0.7-4.6,2.5-5,4.2
		c-0.5,2.4,0.2,5.6,1.6,7.7c0.7,1.1,4.5,1.3,6,0.4c2.9-1.7,1.9-4.4,0.2-6.8c-0.4-0.6-0.3-1.7-0.4-2.6
		C2384.3,1458.4,2386.3,1457.7,2388.3,1457z"/>
	<path d="M2203.9,1389.8c7.1,5,14.9,10.6,23.5,16.8c-6.5,9.3-13.9,16-22,23.7c-8.7-5.9-17.1-11.6-26.4-17.9
		C2187.5,1404.6,2195,1397.8,2203.9,1389.8z"/>
	<path d="M2235.9,1365.9c1.3,0.6,2.6,1.3,3.8,1.9c4.9,4.2,9.9,8.5,15.6,13.4c-5.7,8.5-13.1,15.3-21.1,23.2
		c-8.3-5.7-16.3-11.2-25.4-17.4c6.6-7.8,12.4-14.6,18.1-21.4C2230.1,1362,2233,1365,2235.9,1365.9z"/>
	<path d="M2355.4,1514.8c-9.1-6.7-17.3-12.7-26.4-19.5c6.5-9,12.4-17.1,18.9-26.2c9.9,6.5,18.9,12.4,29.1,19.1
		C2369.5,1497.5,2362.7,1505.9,2355.4,1514.8z M2356.4,1483.2c-2.2,4.7-4.1,8.5-6,12.5c-1.3-0.2-2.2-0.4-3.1-0.6
		c-1-0.2-2-0.4-4.1-0.8c6.5,6.8,8.5,6.7,11.9,1c1.5-2.5,3.3-4.7,4.9-7.1c0.3-0.5,0.2-1.2,0.4-2.3
		C2359.2,1485.1,2357.9,1484.2,2356.4,1483.2z"/>
	<path d="M2330.9,1419.6c-6.8,7.6-12.5,14.4-18.8,20.6c-1.4,1.4-5.3,2-6.9,1c-8.2-4.8-16.1-10.3-25-16.1c6-9.6,13.8-16.2,21.1-24.7
		C2311.3,1406.8,2320.6,1412.9,2330.9,1419.6z M2312.6,1415.2c-5.9,1.1-10.3,1.9-14.7,2.7c0.8,3.8,1.4,6.9,2.1,10
		C2306.1,1425.9,2306.1,1425.9,2312.6,1415.2z"/>
	<path d="M2367.8,1439.8c-6.8,8.1-13.3,14.7-20.1,20.8c-1.2,1.1-4.8,1.2-6.1,0.3c-7.8-5.6-15.2-11.6-23.5-18.1
		c6.7-8.3,13.2-15.1,21.2-21.5C2348.7,1427.4,2357.7,1433.3,2367.8,1439.8z M2341.5,1443.1c-3.5-0.2-6.4-0.3-9.2-0.4
		c2.7,2.8,7.3,5.4,8.8,4.2c2.5-2,3-6.5,4.7-10.7c0.2-0.1,1.6-0.5,3.3-1.1c-4.8-2.2-4.8-2.2-9.4,0.5
		C2340.1,1437.7,2340.7,1439.9,2341.5,1443.1z"/>
	<path d="M2468.1,1413.6c2.5-2,5.2-2.9,8.2-1c18.8,11.9,39.1,20.9,58.6,31.4c0.8,0.4,1.4,1.4,2.8,2.9c-2.5,4.9-5.1,10.1-8.1,16.1
		c-11.2-4.6-21.4-9.5-30.5-15.9c-2.4-1.7-3.3-3.2-6.4-2.1c-1.2,0.4-3.1-1-4.5-1.7c-7-3.9-13.9-7.8-21-11.7c-3.5-1.9-5.9-4.3-5-8.7
		C2464.2,1419.8,2466.1,1416.7,2468.1,1413.6z M2497.8,1430.4c-8.6-4.9-16.2-9.2-24.6-14c-1.8,3.6-3.2,6.4-4.9,9.7
		c8.3,4.8,15.9,9.2,23.8,13.7C2494.1,1436.6,2495.6,1434.1,2497.8,1430.4z M2531,1447.8c-8-4.1-15.4-7.9-23.6-12.1
		c-1.4,3.6-2.5,6.1-3.6,9c8.1,4,15.4,7.7,23.1,11.5C2528.4,1453.2,2529.5,1450.9,2531,1447.8z"/>
	<path d="M2458.2,1484.5c12,7.8,21.9,14.2,32.8,21.3c-7.1,10.2-13.5,19.3-20.5,29.3c-11-7.1-21-13.4-32-20.5
		C2445.3,1504.2,2451.6,1494.6,2458.2,1484.5z M2447.7,1512.9c7.2,4.4,13.9,8.4,20.9,12.6c4.9-6.6,9.3-12.3,14-18.6
		c-7.7-5.3-14.7-10.1-22.3-15.3c-2.1,3.7-3.7,6.4-6.1,10.7c8,2.3,17.1-1.6,22.3,6c-7.3,0-14.2,0-21.6,0c-0.3-0.5-1.1-1.8-2.2-3.8
		C2450.9,1507.6,2449.5,1510,2447.7,1512.9z"/>
	<path d="M2446.9,1567.4c-12.4-7-23.8-13.5-36.1-20.5c6-10.9,11.3-20.7,17.3-31.8c13.2,8,25.4,15.5,38.8,23.7
		C2459.8,1548.9,2453.6,1557.7,2446.9,1567.4z M2458.6,1540.5c-9.6-6.3-18.4-12.1-28-18.4c-3.9,7.7-7.5,14.7-11.5,22.5
		c8.8,5.1,16.9,9.8,25.3,14.7C2449.3,1552.8,2453.5,1547.3,2458.6,1540.5z"/>
	<path d="M2381.4,1581.2c7-11.4,13.4-21.7,20.5-33.2c12.7,7.8,24.4,15,37.5,23.1c-5.2,6.6-9.5,12.4-14.1,17.9
		c-14.4,17-9.1,16.9-28.1,3.7C2392.1,1589,2387.2,1585.3,2381.4,1581.2z M2411.6,1595.7c6.4-7.6,12.7-15.1,19.5-23.2
		c-9.5-6.2-17.9-11.8-27.1-17.8c-5.2,8.8-9.9,16.6-14.9,25.1C2396.8,1585.2,2403.7,1590.1,2411.6,1595.7z"/>
	<path d="M2458.5,1482.9c-12.8-8.6-24-16.2-36.3-24.5c6.8-9.2,14.1-16.4,21-23.8c0.8-0.9,3.4-1.2,4.6-0.7
		c10.5,4.8,20.9,9.8,32.2,15.2C2473.7,1461.6,2466,1471.4,2458.5,1482.9z M2445.7,1439.2c-5.5,6.2-10.4,11.8-15.9,18.1
		c9.4,6.2,18.1,11.9,27.2,17.8c5.4-8.3,9.9-15.4,14.8-23.1C2462.7,1447.6,2454.7,1443.6,2445.7,1439.2z"/>
	<path d="M2428.3,1510.5c-10.1-6.7-19.9-13.2-30.8-20.4c7-9.4,13.3-17.8,20.3-27.1c11.2,6.8,21.9,13.2,32.4,19.5
		C2447.7,1489.9,2438.8,1501.3,2428.3,1510.5z M2418.8,1470.6c-4.7,6.3-8.9,11.8-13.5,18c8.1,5.3,15.4,10.1,23.1,15.1
		c5.3-6.6,9.7-12.2,14.6-18.3C2434.6,1480.3,2427.3,1475.8,2418.8,1470.6z"/>
	<path d="M2485.7,1454.4c11.6,7.4,22.2,14.1,33.8,21.4c-7.6,10-14.3,18.8-21.7,28.7c-11.3-8.2-21.7-15.6-32.8-23.6
		C2470.7,1470.9,2478.3,1463.6,2485.7,1454.4z M2496.6,1496.7c5.6-7.1,10.4-13.2,15.5-19.8c-8.9-5.9-16.8-11.2-25.1-16.7
		c-5.1,6.7-9.4,12.5-14.4,19.1C2480.6,1485.2,2488.1,1490.6,2496.6,1496.7z"/>
	<path d="M2468.1,1413.6c-2,3.1-3.9,6.2-5.9,9.3c-2.5,2-4.7,5-8.6,2.7c-9.6-5.6-19.2-11.3-29.7-17.4c3.6-5.9,6.6-10.9,10.3-17
		c11.3,5.8,22.1,11.3,32.7,17.1C2468,1408.9,2467.7,1411.8,2468.1,1413.6z M2436.2,1396.9c-2,3.4-3.6,6.1-5.6,9.6
		c8.8,5.2,17,9.9,25.7,15c2.5-3.9,4.4-6.8,6.7-10.2C2453.6,1406.3,2445.3,1401.8,2436.2,1396.9z"/>
	<path d="M1535.1,235.3c-1,59.7-2,119.4-3,179.1c-0.7,0-1.3,0-2,0c0.8-59.7,1.6-119.5,2.4-179.2
		C1533.3,235.2,1534.2,235.2,1535.1,235.3z"/>
	<path d="M1542.4,350.2c0-37.3,0-74.6,0-112c0.4,0,0.8,0,1.2,0c0,37.4,0,74.8,0,112.1C1543.1,350.4,1542.8,350.3,1542.4,350.2z"/>
	<path d="M1551.9,330.2c0-29.5,0-59,0-88.4c0.5,0,1,0,1.5,0c0,29.4,0,58.9,0,88.3C1552.9,330.1,1552.4,330.2,1551.9,330.2z"/>
	<path d="M1565.5,343.6c3.6-0.1,6.3,2.6,6.2,6.2c-0.1,3.6-2.9,6.1-6.5,5.9c-3.5-0.2-5.4-2.2-5.6-5.6
		C1559.4,346.4,1561.9,343.7,1565.5,343.6z"/>
	<path d="M1584.7,475.4c-3.5,2.7-5.5,5.2-7.7,5.6c-3.1,0.4-5.4-2-5.4-5.5c0-3.5,2-6,5.3-5.4C1579.2,470.3,1581.1,472.8,1584.7,475.4
		z"/>
	<path d="M1560.3,390.3c-4.2,2.1-6.4,4-8.8,4.1c-1.2,0.1-3.5-2.8-3.7-4.6c-0.4-3.5,2.1-5.8,5.4-5.2
		C1555.2,384.9,1556.8,387.4,1560.3,390.3z"/>
	<path d="M1573.4,321.3c-2.3-3.1-4.6-4.9-4.8-6.9c-0.1-1.4,2.4-4,4.1-4.4c3.1-0.8,5.3,1.5,4.9,4.6
		C1577.5,316.4,1575.6,318.1,1573.4,321.3z"/>
	<path d="M1562.3,444.9c-3.5,2.4-5.6,4.9-7.3,4.7c-1.9-0.2-4.7-3-4.7-4.7c0-1.7,2.8-4.5,4.7-4.8
		C1556.7,439.9,1558.8,442.4,1562.3,444.9z"/>
	<path d="M1572.3,415.5c2,3.1,4.1,4.9,3.9,6.5c-0.2,1.8-2.2,4.5-3.8,4.8c-3.1,0.6-5-1.9-4.5-4.9
		C1568.3,420,1570.2,418.5,1572.3,415.5z"/>
	<path d="M1520.1,466.3c1.8,2.6,3.9,4.4,3.5,5.3c-0.7,1.7-2.6,3.2-4.3,3.8c-0.7,0.2-3.4-2.5-3.2-3.6
		C1516.4,470.2,1518.3,468.7,1520.1,466.3z"/>
	<path d="M1548.9,488.4c-2.3,1.6-3.7,3.2-5.2,3.4c-0.9,0.1-3.1-2.3-2.9-3c0.4-1.6,1.9-3.7,3.3-4
		C1545.1,484.6,1546.8,486.7,1548.9,488.4z"/>
	<path d="M1354.3,469.5c34.5,7.2,68.4,6.1,102.9-2c1.3,3.4,2.8,6.7,3.9,10.1c17.4,52.5,34.8,104.9,52.2,157.4
		c3.9,11.7,1.9,18.3-9.6,23.6c-9.9,4.5-20.5,8.4-31.2,10.2c-49.4,8.5-98.3,5.9-146.2-9c-8.5-2.6-16.6-6.9-24.3-11.4
		c-7.4-4.3-7.3-5.5-4.5-14c12.3-36.3,24.6-72.5,37-108.8c5.8-17,11.7-34,17.5-51C1352.6,472.9,1353.5,471.1,1354.3,469.5z
		 M1403.2,573.9c-4.4-0.2-8.4,3.3-8.9,7.7c-0.5,4.6,3.8,9.3,8.5,9.2c4.2,0,8.3-4.1,8.4-8.3C1411.3,578.1,1407.6,574.1,1403.2,573.9z
		 M1452.1,606.7c-4.5-0.1-8.3,3.6-8.3,8.1c0,4.1,3.3,7.7,7.3,8.1c4.3,0.4,8.5-3.2,8.8-7.6C1460.1,610.8,1456.5,606.8,1452.1,606.7z
		 M1415.4,519.6c4.1,0,7.6-3.4,7.7-7.5c0-3.9-3.8-7.7-7.6-7.8c-4,0-7.6,3.6-7.6,7.7C1407.9,516.1,1411.3,519.6,1415.4,519.6z
		 M1340.7,620.7c-4,0-7.5,3.7-7.5,7.8c0,4.3,3.3,7.5,7.6,7.5c4.4,0,7.5-3.2,7.4-7.6C1348.2,624.1,1344.8,620.6,1340.7,620.7z
		 M1393.1,624.3c-3.6-0.2-7.1,2.9-7.4,6.6c-0.3,3.9,2.4,7.3,6.2,7.7c4.2,0.5,7.9-2.8,8-7C1399.9,627.9,1396.7,624.5,1393.1,624.3z
		 M1376,505.9c2.7-3.6,5.1-5.5,5.6-7.8c0.7-3.3-1.9-5.6-5.1-5.7c-3.4-0.2-5.9,2.2-5.6,5.3C1371.1,500,1373.5,502.1,1376,505.9z
		 M1366,551.2c-4.2-2.2-6.6-4.5-8.8-4.3c-1.6,0.1-4.2,3.6-4.1,5.4c0.1,1.8,3.3,4.7,4.9,4.6C1360.3,556.7,1362.3,554.1,1366,551.2z
		 M1479.9,581.1c-2.8-2.4-4.4-4.8-5.8-4.7c-1.6,0.1-3.6,2.3-4.2,4.1c-0.3,0.9,2,3.8,3.2,3.9C1474.8,584.4,1476.7,582.7,1479.9,581.1
		z M1439.6,576.7c1.5-2.4,3.4-4,3.1-5.2c-0.3-1.3-2.4-2.5-3.9-3c-0.5-0.2-2.6,2.2-2.5,3.3C1436.4,573.2,1438,574.5,1439.6,576.7z
		 M1355.5,516.4c-1.6,1.5-3.6,2.7-3.5,3.5c0.3,1.5,1.8,2.8,2.8,4.2c1.3-1.2,3.1-2.1,3.7-3.6C1358.9,519.9,1356.9,518.2,1355.5,516.4
		z M1334.5,592.2c-2.5-1.1-3.9-2.3-5.2-2.3c-1.2,0-2.3,1.5-3.5,2.3c1,1.3,1.8,3,3.1,3.8C1329.5,596.3,1331.2,594.6,1334.5,592.2z
		 M1390.3,558.7c1.7-1.9,3.1-2.9,3.4-4.2c0.2-0.7-1.3-2.8-1.9-2.7c-1.3,0.1-3.3,1-3.6,2C1387.9,554.8,1389.3,556.4,1390.3,558.7z
		 M1489.1,638.5c-1.5,1.7-3.2,2.7-3.2,3.7c0,1.1,1.5,2.2,2.4,3.3c1.1-0.9,2.9-1.6,3.1-2.7C1491.7,641.9,1490.3,640.5,1489.1,638.5z
		 M1455,539.7c-1.7-1.6-2.7-3-3.9-3.4c-0.6-0.2-2.7,1.7-2.5,2.2c0.4,1.3,1.5,2.6,2.6,3.2C1451.8,542,1453.1,540.7,1455,539.7z
		 M1451.1,483.8c-2.1,2.7-3.5,3.9-3.3,4.5c0.5,1.2,1.6,2.8,2.7,3c0.9,0.1,2.9-1.5,2.9-2.4C1453.5,487.5,1452.2,486.1,1451.1,483.8z
		 M1491.3,607.5c-1.8-1-3.1-2.3-3.7-2c-1.1,0.5-2.2,1.8-2.6,3c-0.2,0.5,1.9,2.4,2.5,2.2C1488.7,610.4,1489.6,609.1,1491.3,607.5z
		 M1425.1,657.5c-1.9-1.4-3.2-2.9-4.3-2.8c-1.1,0.1-2.7,2-2.7,3c0,1,1.8,2.7,3,2.8C1422.1,660.6,1423.3,658.9,1425.1,657.5z
		 M1373.7,652.3c-1.7-0.9-2.9-2.1-3.7-1.9c-0.9,0.2-2,1.8-1.9,2.7c0.1,0.8,1.7,2.1,2.5,2C1371.5,655,1372.3,653.7,1373.7,652.3z
		 M1404.6,490.4c-1.4-1.3-2.1-2.5-3-2.6c-1-0.1-2,0.9-3,1.4c0.8,1.1,1.4,2.5,2.5,3.2C1401.5,492.7,1402.9,491.4,1404.6,490.4z
		 M1457,646.6c-1.3-1.2-2.1-2.5-2.9-2.5c-0.9,0-1.8,1.1-2.8,1.8c0.8,1.1,1.5,2.4,2.6,3.1C1454.2,649.2,1455.6,647.7,1457,646.6z
		 M1356.2,586.5c-1.1,1.7-2.4,3.1-2.1,3.6c0.6,1.2,1.9,2.2,3.2,2.7c0.4,0.2,2.4-1.9,2.2-2.5C1359.1,589.1,1357.8,588.2,1356.2,586.5
		z M1385.2,521.6c-1,1.8-2.2,3-2,3.8c0.2,0.9,1.7,2,2.7,2c0.7,0,1.9-1.6,1.9-2.5C1387.8,523.9,1386.5,523.1,1385.2,521.6z
		 M1387.5,611.3c1.3-1.4,2.5-2.2,2.7-3.1c0.1-0.8-1.1-1.8-1.7-2.7c-1.1,0.8-2.4,1.5-3.1,2.6C1385.1,608.4,1386.5,609.8,1387.5,611.3
		z"/>
	<path d="M1371.7,340c0,27.1,0,54.1,0,81.2c-0.4,0-0.8,0-1.1,0c0-27,0-54,0-81.1C1370.9,340.1,1371.3,340,1371.7,340z"/>
	<path d="M1360,455.2c2.5-7.4,4.9-14.8,7.4-22.1c0.6,0.2,1.3,0.4,1.9,0.6c-2.5,7.3-5.1,14.7-7.6,22
		C1361.1,455.6,1360.6,455.4,1360,455.2z"/>
	<path d="M315.8,1371.7c6.6-1.7,13.3-3.1,19.9-5c7-2.1,14-4.3,20.8-7c6.5-2.5,12.8-5.5,19.1-8.6c6.3-3.1,12.5-6.3,18.5-9.8
		c6-3.5,12-7.3,17.7-11.3c6-4.2,11.8-8.7,17.3-13.5c5.3-4.5,10-9.8,15.3-14.3c5.1-4.3,6.8-11.9,15.5-14.8c-1,3.1-1.1,5.2-2.1,6.5
		c-4.2,5.6-8,11.6-13.1,16.3c-32.7,30.5-70.6,51.9-114.2,62.8c-4.5,1.1-9.3,3.5-14.1,1.2C316.1,1373.3,315.9,1372.5,315.8,1371.7z"
		/>
	<path d="M321.2,1347.5c40-7.4,72.7-27.7,103.6-52.9c-0.4,1.6-0.5,3.5-1.4,4.8c-1.5,2.1-3.5,4.1-5.5,5.8
		c-23.3,19.2-48.8,34.5-77.8,43.4c-3.2,1-6.4,1.7-9.7,2.3C327,1351.5,327,1351.3,321.2,1347.5z"/>
	<path d="M333.6,1324.9c5.3-2.2,10.7-4.2,15.9-6.5c5.8-2.5,11.5-5.2,17-8.1c5.1-2.7,9.9-5.8,15.7-9.3c0.6,5.9-2.8,7.3-5.4,8.8
		c-13.1,8.2-27,14.8-42.1,18.2C334.4,1327,334,1325.9,333.6,1324.9z"/>
	<path d="M578.5,1436.9c-0.5,2.4-0.6,5-1.7,7.1c-3,5.5-6,11.2-9.9,16c-18.8,22.9-42.4,38.9-70.9,47.3c-3,0.9-6.8,3.7-10.1-1.8
		c9.4-3.7,18.8-6.6,27.5-10.9c8.6-4.2,17-9.1,24.6-14.9c7.9-6,15.2-12.9,21.7-20.4c6.3-7.1,11.2-15.3,16.8-23
		C577.2,1436.6,577.8,1436.7,578.5,1436.9z"/>
	<path d="M507.5,1516.1c6.8-3.6,13.8-6.9,20.3-11c7-4.5,13.7-9.4,20-14.8c5.9-5.1,11-11.2,17.9-18.4c-0.3,3.6,0.1,5.3-0.6,6.3
		c-13.7,19.2-31.8,32.8-53.9,40.9c-0.7,0.3-1.8-0.4-2.7-0.6C508.2,1517.7,507.8,1516.9,507.5,1516.1z"/>
	<path d="M2278.1,1495.6c2.1,0,4.1,0,8.7,0c-4.2,3.3-6.7,5.3-9.2,7.2c-0.5-0.4-1-0.7-1.4-1.1c0.7-2.1,1.5-4.3,2.2-6.5
		C2278.3,1495.3,2278.1,1495.6,2278.1,1495.6z"/>
	<path d="M2389.7,1535.3c-4.6,1-8.3,1.7-12.8,2.7c-0.4-4-0.7-7.6-1-11.4c3.9-0.7,7.2-1.3,10.9-2
		C2387.8,1528.1,2388.7,1531.5,2389.7,1535.3z"/>
	<path d="M2430.8,1535.2c2.9,7.4,8.3,9.5,16.1,8.3c-6.3,4.8-10.4,5.2-14.8,1.7C2429.3,1542.9,2426.9,1540.1,2430.8,1535.2z"/>
	<path d="M2411.9,1573.9c1.3,2.2,2.5,4.3,4.3,7.4c-7.1-0.3-11.5-2.7-14.4-9.3c2.6,0,4.5,0,6.3,0
		C2409.4,1572.6,2410.7,1573.3,2411.9,1573.9z"/>
	<path d="M2411.9,1573.9c-1.2-0.6-2.5-1.3-3.7-1.9c-0.6-1.8-1.1-3.6-1.9-6c6.5-0.1,10.3,2.5,13,9.3
		C2416,1574.7,2414,1574.3,2411.9,1573.9z"/>
	<path d="M2449.5,1449.2c2.7,2,5.3,3.9,7.6,5.7c-1.7,2.7-3.4,5.4-4.8,7.7c-4.1-1.9-8.2-3.7-12-5.4
		C2443.1,1454.6,2446.2,1452,2449.5,1449.2z"/>
	<path d="M2430.8,1490.4c-4.2-2.4-8.4-4.9-12.7-7.3c6.8-2.3,10.5,1.2,14.1,5C2431.8,1488.9,2431.3,1489.7,2430.8,1490.4z"/>
	<path d="M2487.2,1472.3c3.8,2.6,7.5,5.2,11.3,7.8c-0.4,0.6-0.8,1.3-1.2,1.9c-3.9-2.3-7.8-4.7-11.7-7
		C2486.1,1474.1,2486.6,1473.2,2487.2,1472.3z"/>
</g>
</svg>
